<?xml version="1.0" encoding="UTF-8" standalone="no"?>
<svg
   xmlns:dc="http://purl.org/dc/elements/1.1/"
   xmlns:cc="http://creativecommons.org/ns#"
   xmlns:rdf="http://www.w3.org/1999/02/22-rdf-syntax-ns#"
   xmlns:svg="http://www.w3.org/2000/svg"
   xmlns="http://www.w3.org/2000/svg"
   id="svg2"
   viewBox="0 0 19666103 19704386"
   style="clip-rule:evenodd;fill-rule:evenodd;image-rendering:optimizeQuality;shape-rendering:geometricPrecision;text-rendering:geometricPrecision"
   version="1.1"
   height="196.66103"
   width="196.66103"
   xml:space="preserve"><metadata
     id="metadata14"><rdf:RDF><cc:Work
         rdf:about=""><dc:format>image/svg+xml</dc:format><dc:type
           rdf:resource="http://purl.org/dc/dcmitype/StillImage" /><dc:title></dc:title></cc:Work></rdf:RDF></metadata><defs
     id="defs4"><style
       id="style6"
       type="text/css"><![CDATA[
    .fil0 {fill:#2250A3}
   ]]></style></defs><circle
     r="9730346"
     cy="9799973"
     cx="9850133"
     id="path4148"
     style="fill:#ffffff;fill-opacity:1" /><g
     transform="translate(-139252.84,417761)"
     id="Слой_x0020_1"><metadata
       id="CorelCorpID_0Corel-Layer" /><path
       style="fill:#2250a3"
       d="M 16587653,2210131 C 14887634,677267 13271193,203530 13271193,203530 l -3260695,11105962 -27915,0 L 6694029,203530 c 0,0 -1616441,459831 -3316469,2006601 C 1566039,3854375 5372,6376582 270123,10375821 c 209033,3163155 2550066,5852573 2550066,5852573 l 4528798,-13953 c 0,0 -3887793,-2062319 -4821418,-5309108 -1114789,-3832028 627052,-6493587 1964789,-7761634 543465,-473793 1337728,-585286 1630338,431972 1003305,3246789 3873840,12541230 3873840,12541230 l 13962,47 c 0,0 2856629,-9294441 3873831,-12541230 306573,-1017258 1100845,-905756 1630347,-431972 1337737,1268056 3079577,3929559 1964779,7761634 -933615,3246789 -4821408,5309108 -4821408,5309108 l 4528798,13962 c 0,0 2354986,-2703324 2550066,-5852582 236892,-3999286 -1323831,-6521493 -3149258,-8165737 z"
       class="fil0"
       id="path4" /></g></svg>