<?xml version="1.0" encoding="UTF-8" standalone="no"?>
<svg
   xmlns:dc="http://purl.org/dc/elements/1.1/"
   xmlns:cc="http://creativecommons.org/ns#"
   xmlns:rdf="http://www.w3.org/1999/02/22-rdf-syntax-ns#"
   xmlns:svg="http://www.w3.org/2000/svg"
   xmlns="http://www.w3.org/2000/svg"
   xml:space="preserve"
   enable-background="new 0 0 612 792"
   viewBox="0 0 192.756 192.756"
   height="192.756"
   width="192.756"
   y="0px"
   x="0px"
   id="Layer_1"
   version="1.1"><metadata
     id="metadata15"><rdf:RDF><cc:Work
         rdf:about=""><dc:format>image/svg+xml</dc:format><dc:type
           rdf:resource="http://purl.org/dc/dcmitype/StillImage" /><dc:title></dc:title></cc:Work></rdf:RDF></metadata><defs
     id="defs13" /><g
     transform="translate(-209,-300)"
     id="g3"><path
       style="clip-rule:evenodd;fill:#ffffff;fill-opacity:1;fill-rule:nonzero"
       id="path7-2"
       d="m 378.81484,459.74216 c 7.6349,-12.6777 11.41515,-26.8855 11.41515,-42.69653 0,-23.53276 -8.45048,-43.6425 -25.42681,-60.2542 -11.41515,-11.29386 -24.53683,-18.72496 -39.21428,-22.36833 -6.44922,-1.60323 -13.19415,-2.47703 -20.3111,-2.6233 -7.04255,0.14627 -13.78844,1.02007 -20.23766,2.6233 -14.75186,3.64242 -27.79816,11.07447 -39.21428,22.36833 -16.97536,16.6117 -25.42681,36.72144 -25.42681,60.2542 0,15.81103 3.78122,30.01883 11.41515,42.69653 l 147.00064,0 z" /><polygon
       style="clip-rule:evenodd;fill:#ffffff;fill-rule:evenodd;opacity:0"
       id="polygon5"
       points="209,492.756 209,300 209,300 401.756,300 401.756,492.756 " /><path
       style="clip-rule:evenodd;fill:#204b9b;fill-opacity:1;fill-rule:evenodd"
       id="path7"
       d="m 381.438,463.731 c 7.901,-13.348 11.813,-28.307 11.813,-44.954 0,-24.777 -8.745,-45.95 -26.313,-63.44 -11.813,-11.891 -25.392,-19.715 -40.581,-23.551 -6.674,-1.688 -13.654,-2.608 -21.019,-2.762 -7.288,0.154 -14.269,1.074 -20.943,2.762 -15.266,3.835 -28.767,11.66 -40.581,23.551 -17.567,17.49 -26.313,38.663 -26.313,63.44 0,16.647 3.913,31.606 11.813,44.954 l 152.124,0 0,0 z m 3.069,-48.866 c 0,14.575 -3.146,27.771 -9.282,39.354 l -139.694,0 c -6.214,-11.583 -9.282,-24.778 -9.282,-39.354 0,-20.865 7.825,-38.663 23.474,-53.392 10.663,-9.973 22.707,-16.57 36.285,-19.792 6.137,-1.458 12.581,-2.225 19.332,-2.302 6.75,0.077 13.194,0.844 19.331,2.302 13.578,3.222 25.699,9.819 36.285,19.792 15.726,14.73 23.551,32.527 23.551,53.392 l 0,0 z" /><polygon
       style="clip-rule:evenodd;fill:#ed1c24;fill-rule:evenodd"
       id="polygon9"
       points="328.967,350.351 305.34,399.522 281.789,350.351 246.655,437.649 238.216,437.649 238.216,444.937 286.545,444.937 286.545,437.649 276.956,437.649 288.156,409.803 305.34,445.704 322.6,409.803 333.723,437.649 324.134,437.649 324.134,444.937 372.463,444.937 372.463,444.937 372.463,437.649 364.024,437.649 " /></g></svg>