<?xml version="1.0" encoding="UTF-8"?>
<!DOCTYPE svg PUBLIC "-//W3C//DTD SVG 1.1//EN" "http://www.w3.org/Graphics/SVG/1.1/DTD/svg11.dtd">
<!-- Creator: CorelDRAW X8 -->
<svg xmlns="http://www.w3.org/2000/svg" xml:space="preserve" width="5396px" height="7175px" version="1.1" style="shape-rendering:geometricPrecision; text-rendering:geometricPrecision; image-rendering:optimizeQuality; fill-rule:evenodd; clip-rule:evenodd"
viewBox="0 0 5396 7175"
 xmlns:xlink="http://www.w3.org/1999/xlink">
 <defs>
  <style type="text/css">
   <![CDATA[
    .fil13 {fill:#FEFEFE;fill-rule:nonzero}
    .fil18 {fill:#FEE0B5;fill-rule:nonzero}
    .fil24 {fill:#F8C5B3;fill-rule:nonzero}
    .fil17 {fill:#F9B33B;fill-rule:nonzero}
    .fil12 {fill:#E63A34;fill-rule:nonzero}
    .fil10 {fill:#F4F1ED;fill-rule:nonzero}
    .fil11 {fill:#F3F1EA;fill-rule:nonzero}
    .fil8 {fill:#E5CDAE;fill-rule:nonzero}
    .fil9 {fill:#E3D4BF;fill-rule:nonzero}
    .fil0 {fill:#E9F6FD;fill-rule:nonzero}
    .fil22 {fill:#E6DDEE;fill-rule:nonzero}
    .fil21 {fill:#E6AD3F;fill-rule:nonzero}
    .fil2 {fill:#DCE9F0;fill-rule:nonzero}
    .fil3 {fill:#D0D5CF;fill-rule:nonzero}
    .fil4 {fill:#D0D5CE;fill-rule:nonzero}
    .fil5 {fill:#D0D3CD;fill-rule:nonzero}
    .fil6 {fill:#D0D3CB;fill-rule:nonzero}
    .fil7 {fill:#D0D2CA;fill-rule:nonzero}
    .fil23 {fill:#D1BCDC;fill-rule:nonzero}
    .fil20 {fill:#CCE3BF;fill-rule:nonzero}
    .fil1 {fill:#C0DFCC;fill-rule:nonzero}
    .fil19 {fill:#BECFB7;fill-rule:nonzero}
    .fil15 {fill:#843D8D;fill-rule:nonzero}
    .fil16 {fill:#3FAB3C;fill-rule:nonzero}
    .fil14 {fill:#2873B9;fill-rule:nonzero}
   ]]>
  </style>
 </defs>
 <g id="Слой_x0020_1">
  <metadata id="CorelCorpID_0Corel-Layer"/>
  <path class="fil0" d="M3939 7058c0,0 0,0 1,0 4,0 8,-1 12,-3l1 -1 -14 0 0 4zm71 -4l0 1 0 -1 0 0z"/>
  <path class="fil0" d="M3939 7058c0,0 0,0 1,0 4,0 8,-1 12,-3l1 -1 -14 0 0 4z"/>
  <path class="fil0" d="M4010 7092l-16 -9c-4,-1 -8,-2 -12,-2 -5,0 -9,1 -13,2l-12 7 2 3 12 -6c4,-1 7,-2 11,-2 3,0 6,1 10,2l18 9 0 -4z"/>
  <path class="fil0" d="M4010 7133l-16 -8c-4,-2 -8,-3 -12,-3 -5,0 -9,1 -13,3l-19 10c-3,1 -7,2 -10,2 -1,0 -1,0 -1,0l0 4c0,0 0,0 1,0 4,0 8,-1 12,-2l19 -10c4,-2 7,-3 11,-3 3,0 6,1 10,3l18 9 0 -5z"/>
  <path class="fil0" d="M4010 7092l-16 -9c-4,-1 -8,-2 -12,-2 -5,0 -9,1 -13,2l-19 10c-3,2 -7,3 -10,3 -1,0 -1,0 -1,-1l0 5c0,0 0,0 1,0 4,0 8,-1 12,-3l19 -10c4,-1 7,-2 11,-2 3,0 6,1 10,2l18 9 0 -4z"/>
  <path class="fil0" d="M3982 7122c-5,0 -9,1 -13,3l-19 10c-3,1 -7,2 -10,2 -1,0 -1,0 -1,0l0 4c0,0 0,0 1,0 4,0 8,-1 12,-2l19 -10c4,-2 7,-3 11,-3 3,0 6,1 10,3l9 4 2 -3 -9 -5c-4,-2 -8,-3 -12,-3z"/>
  <path class="fil0" d="M4010 7175l-16 -8c-4,-2 -8,-3 -12,-3 -5,0 -9,1 -13,3l-12 6 1 2 4 0 9 -5c4,-1 7,-2 11,-2 3,0 6,1 10,2l9 5 9 0 0 0z"/>
  <path class="fil0" d="M4010 7175l-16 -8c-4,-2 -8,-3 -12,-3 -5,0 -9,1 -13,3l-17 8 10 0 9 -5c4,-1 7,-2 11,-2 3,0 6,1 10,2l9 5 9 0 0 0z"/>
  <path class="fil0" d="M4093 7054l1 1c4,2 8,3 13,3 4,0 8,-1 12,-3l1 -1 -27 0z"/>
  <path class="fil0" d="M4010 7055l1 0c4,2 8,3 12,3 4,0 8,-1 12,-3l2 -1 -27 0 0 1zm83 -1l1 1c4,2 8,3 13,3 4,0 8,-1 12,-3l1 -1 -27 0z"/>
  <path class="fil0" d="M4164 7085l-4 -2c-4,-1 -8,-2 -12,-2 -4,0 -8,1 -12,2l-13 7 2 3 13 -6c3,-1 7,-2 10,-2 4,0 7,1 10,2l6 3 0 -5z"/>
  <path class="fil0" d="M4164 7127l-4 -2c-4,-2 -8,-3 -12,-3 -4,0 -8,1 -12,3l-19 10c-4,1 -7,2 -10,2 -4,0 -7,-1 -11,-2l-19 -10c-4,-2 -8,-3 -12,-3 -4,0 -8,1 -12,3l-13 6 2 4 13 -6c3,-2 6,-3 10,-3 3,0 7,1 10,3l19 10c4,1 8,2 13,2 4,0 8,-1 12,-2l19 -10c3,-2 7,-3 10,-3 4,0 7,1 10,3l6 2 0 -4z"/>
  <path class="fil0" d="M4164 7085l-4 -2c-4,-1 -8,-2 -12,-2 -4,0 -8,1 -12,2l-19 10c-4,2 -7,3 -10,3 -4,0 -7,-1 -11,-3l-19 -10c-4,-1 -8,-2 -12,-2 -4,0 -8,1 -12,2l-20 10c-3,2 -6,3 -10,3 -3,0 -7,-1 -10,-3l-3 -1 0 4 1 1c4,2 8,3 12,3 4,0 8,-1 12,-3l20 -10c3,-1 6,-2 10,-2 3,0 7,1 10,2l19 10c4,2 8,3 13,3 4,0 8,-1 12,-3l19 -10c3,-1 7,-2 10,-2 4,0 7,1 10,2l6 3 0 -5z"/>
  <path class="fil0" d="M4148 7122c-4,0 -8,1 -12,3l-19 10c-4,1 -7,2 -10,2 -4,0 -7,-1 -11,-2l-19 -10c-4,-2 -8,-3 -12,-3 -4,0 -8,1 -12,3l-20 10c-3,1 -6,2 -10,2 -3,0 -7,-1 -10,-2l-3 -2 0 5 1 1c4,1 8,2 12,2 4,0 8,-1 12,-2l20 -10c3,-2 6,-3 10,-3 3,0 7,1 10,3l19 10c4,1 8,2 13,2 4,0 8,-1 12,-2l19 -10c3,-2 7,-3 10,-3 4,0 7,1 10,3l6 2 0 -4 -4 -2c-4,-2 -8,-3 -12,-3z"/>
  <path class="fil0" d="M4065 7081c-4,0 -8,1 -12,2l-20 10c-3,2 -6,3 -10,3 -3,0 -7,-1 -10,-3l-3 -1 0 4 1 1c4,2 8,3 12,3 4,0 8,-1 12,-3l20 -10c3,-1 6,-2 10,-2 3,0 7,1 10,2l9 5 2 -4 -9 -5c-4,-1 -8,-2 -12,-2z"/>
  <path class="fil0" d="M4164 7168l-4 -1c-4,-2 -8,-3 -12,-3 -4,0 -8,1 -12,3l-13 6 2 2 3 0 10 -5c3,-1 7,-2 10,-2 4,0 7,1 10,2l6 3 0 -5z"/>
  <path class="fil0" d="M4164 7168l-4 -1c-4,-2 -8,-3 -12,-3 -4,0 -8,1 -12,3l-17 8 9 0 10 -5c3,-1 7,-2 10,-2 4,0 7,1 10,2l6 3 0 -5zm-70 7l-17 -8c-4,-2 -8,-3 -12,-3 -4,0 -8,1 -12,3l-17 8 9 0 10 -5c3,-1 6,-2 10,-2 3,0 7,1 10,2l10 5 9 0zm-83 0l-1 0 0 0 1 0z"/>
  <path class="fil0" d="M4065 7164c-4,0 -8,1 -12,3l-17 8 9 0 10 -5c3,-1 6,-2 10,-2 3,0 7,1 10,2l9 5 2 -4 -9 -4c-4,-2 -8,-3 -12,-3zm-54 11l-1 0 0 0 1 0z"/>
  <path class="fil0" d="M3939 6891c0,0 0,0 1,0 4,0 8,-1 12,-3l1 0 -14 0 0 3zm71 -3l0 0 0 0 0 0z"/>
  <path class="fil0" d="M3939 6891c0,0 0,0 1,0 4,0 8,-1 12,-3l1 0 -14 0 0 3z"/>
  <path class="fil0" d="M4010 6925l-16 -8c-4,-2 -8,-3 -12,-3 -5,0 -9,1 -13,3l-12 6 2 4 12 -7c4,-1 7,-2 11,-2 3,0 6,1 10,2l18 10 0 -5z"/>
  <path class="fil0" d="M4010 6967l-16 -9c-4,-1 -8,-2 -12,-2 -5,0 -9,1 -13,2l-19 10c-3,2 -7,3 -10,3 -1,0 -1,0 -1,-1l0 5c0,0 0,0 1,0 4,0 8,-1 12,-3l19 -10c4,-1 7,-2 11,-2 3,0 6,1 10,2l18 9 0 -4z"/>
  <path class="fil0" d="M4010 6925l-16 -8c-4,-2 -8,-3 -12,-3 -5,0 -9,1 -13,3l-19 9c-3,2 -7,3 -10,3 -1,0 -1,0 -1,0l0 4c0,0 0,0 1,0 4,0 8,-1 12,-3l19 -10c4,-1 7,-2 11,-2 3,0 6,1 10,2l18 10 0 -5z"/>
  <path class="fil0" d="M3982 6956c-5,0 -9,1 -13,2l-19 10c-3,2 -7,3 -10,3 -1,0 -1,0 -1,-1l0 5c0,0 0,0 1,0 4,0 8,-1 12,-3l19 -10c4,-1 7,-2 11,-2 3,0 6,1 10,2l9 5 2 -4 -9 -5c-4,-1 -8,-2 -12,-2z"/>
  <path class="fil0" d="M4010 7008l-16 -8c-4,-2 -8,-3 -12,-3 -5,0 -9,1 -13,3l-12 6 2 4 12 -6c4,-2 7,-3 11,-3 3,0 6,1 10,3l18 9 0 -5z"/>
  <path class="fil0" d="M4010 7050l-16 -8c-4,-2 -8,-3 -12,-3 -5,0 -9,1 -13,3l-19 9c-3,2 -7,3 -10,3 -1,0 -1,0 -1,0l0 0 14 0 18 -9c4,-1 7,-2 11,-2 3,0 6,1 10,2l18 9 0 0 0 -4z"/>
  <path class="fil0" d="M4010 7008l-16 -8c-4,-2 -8,-3 -12,-3 -5,0 -9,1 -13,3l-19 10c-3,1 -7,2 -10,2 -1,0 -1,0 -1,0l0 4c0,0 0,0 1,0 4,0 8,-1 12,-2l19 -10c4,-2 7,-3 11,-3 3,0 6,1 10,3l18 9 0 -5z"/>
  <path class="fil0" d="M3982 7039c-5,0 -9,1 -13,3l-19 9c-3,2 -7,3 -10,3 -1,0 -1,0 -1,0l0 0 14 0 18 -9c4,-1 7,-2 11,-2 3,0 6,1 10,2l9 5 2 -4 -9 -4c-4,-2 -8,-3 -12,-3z"/>
  <path class="fil0" d="M4093 6888l1 0c4,2 8,3 13,3 4,0 8,-1 12,-3l1 0 -27 0z"/>
  <path class="fil0" d="M4010 6888l1 0c4,2 8,3 12,3 4,0 8,-1 12,-3l2 0 -27 0 0 0zm83 0l1 0c4,2 8,3 13,3 4,0 8,-1 12,-3l1 0 -27 0z"/>
  <path class="fil0" d="M4164 6918l-4 -1c-4,-2 -8,-3 -12,-3 -4,0 -8,1 -12,3l-13 6 2 4 13 -7c3,-1 7,-2 10,-2 4,0 7,1 10,2l6 3 0 -5z"/>
  <path class="fil0" d="M4164 6960l-4 -2c-4,-1 -8,-2 -12,-2 -4,0 -8,1 -12,2l-19 10c-4,2 -7,3 -10,3 -4,0 -7,-1 -11,-3l-19 -10c-4,-1 -8,-2 -12,-2 -4,0 -8,1 -12,2l-13 7 2 3 13 -6c3,-1 6,-2 10,-2 3,0 7,1 10,2l19 10c4,2 8,3 13,3 4,0 8,-1 12,-3l19 -10c3,-1 7,-2 10,-2 4,0 7,1 10,2l6 3 0 -5z"/>
  <path class="fil0" d="M4164 6918l-4 -1c-4,-2 -8,-3 -12,-3 -4,0 -8,1 -12,3l-19 9c-4,2 -7,3 -10,3 -4,0 -7,-1 -11,-3l-19 -9c-4,-2 -8,-3 -12,-3 -4,0 -8,1 -12,3l-20 9c-3,2 -6,3 -10,3 -3,0 -7,-1 -10,-3l-3 -1 0 5 1 0c4,2 8,3 12,3 4,0 8,-1 12,-3l20 -10c3,-1 6,-2 10,-2 3,0 7,1 10,2l19 10c4,2 8,3 13,3 4,0 8,-1 12,-3l19 -10c3,-1 7,-2 10,-2 4,0 7,1 10,2l6 3 0 -5z"/>
  <path class="fil0" d="M4148 6956c-4,0 -8,1 -12,2l-19 10c-4,2 -7,3 -10,3 -4,0 -7,-1 -11,-3l-19 -10c-4,-1 -8,-2 -12,-2 -4,0 -8,1 -12,2l-20 10c-3,2 -6,3 -10,3 -3,0 -7,-1 -10,-3l-3 -1 0 4 1 1c4,2 8,3 12,3 4,0 8,-1 12,-3l20 -10c3,-1 6,-2 10,-2 3,0 7,1 10,2l19 10c4,2 8,3 13,3 4,0 8,-1 12,-3l19 -10c3,-1 7,-2 10,-2 4,0 7,1 10,2l6 3 0 -5 -4 -2c-4,-1 -8,-2 -12,-2z"/>
  <path class="fil0" d="M4065 6914c-4,0 -8,1 -12,3l-20 9c-3,2 -6,3 -10,3 -3,0 -7,-1 -10,-3l-3 -1 0 5 1 0c4,2 8,3 12,3 4,0 8,-1 12,-3l20 -10c3,-1 6,-2 10,-2 3,0 7,1 10,2l9 5 2 -4 -9 -4c-4,-2 -8,-3 -12,-3z"/>
  <path class="fil0" d="M4164 7002l-4 -2c-4,-2 -8,-3 -12,-3 -4,0 -8,1 -12,3l-13 6 2 4 13 -6c3,-2 7,-3 10,-3 4,0 7,1 10,3l6 2 0 -4z"/>
  <path class="fil0" d="M4164 7043l-4 -1c-4,-2 -8,-3 -12,-3 -4,0 -8,1 -12,3l-19 9c-4,2 -7,3 -10,3 -4,0 -7,-1 -11,-3l-19 -9c-4,-2 -8,-3 -12,-3 -4,0 -8,1 -12,3l-13 6 2 4 13 -7c3,-1 6,-2 10,-2 3,0 7,1 10,2l18 9 27 0 18 -9c3,-1 7,-2 10,-2 4,0 7,1 10,2l6 3 0 -5z"/>
  <path class="fil0" d="M4164 7002l-4 -2c-4,-2 -8,-3 -12,-3 -4,0 -8,1 -12,3l-19 10c-4,1 -7,2 -10,2 -4,0 -7,-1 -11,-2l-19 -10c-4,-2 -8,-3 -12,-3 -4,0 -8,1 -12,3l-20 10c-3,1 -6,2 -10,2 -3,0 -7,-1 -10,-2l-3 -2 0 5 1 1c4,1 8,2 12,2 4,0 8,-1 12,-2l20 -10c3,-2 6,-3 10,-3 3,0 7,1 10,3l19 10c4,1 8,2 13,2 4,0 8,-1 12,-2l19 -10c3,-2 7,-3 10,-3 4,0 7,1 10,3l6 2 0 -4z"/>
  <path class="fil0" d="M4148 7039c-4,0 -8,1 -12,3l-19 9c-4,2 -7,3 -10,3 -4,0 -7,-1 -11,-3l-19 -9c-4,-2 -8,-3 -12,-3 -4,0 -8,1 -12,3l-20 9c-3,2 -6,3 -10,3 -3,0 -7,-1 -10,-3l-3 -1 0 4 27 0 18 -9c3,-1 6,-2 10,-2 3,0 7,1 10,2l18 9 27 0 18 -9c3,-1 7,-2 10,-2 4,0 7,1 10,2l6 3 0 -5 -4 -1c-4,-2 -8,-3 -12,-3z"/>
  <path class="fil0" d="M4065 6997c-4,0 -8,1 -12,3l-20 10c-3,1 -6,2 -10,2 -3,0 -7,-1 -10,-2l-3 -2 0 5 1 1c4,1 8,2 12,2 4,0 8,-1 12,-2l20 -10c3,-2 6,-3 10,-3 3,0 7,1 10,3l9 4 2 -3 -9 -5c-4,-2 -8,-3 -12,-3z"/>
  <path class="fil0" d="M3939 6725c0,0 0,0 1,0 4,0 8,-1 12,-3l1 -1 -14 0 0 4zm71 -4l0 0 0 0 0 0z"/>
  <path class="fil0" d="M3939 6725c0,0 0,0 1,0 4,0 8,-1 12,-3l1 -1 -14 0 0 4z"/>
  <path class="fil0" d="M4010 6758l-16 -8c-4,-2 -8,-3 -12,-3 -5,0 -9,1 -13,3l-12 6 2 4 12 -6c4,-2 7,-3 11,-3 3,0 6,1 10,3l18 9 0 -5z"/>
  <path class="fil0" d="M4010 6800l-16 -8c-4,-2 -8,-3 -12,-3 -5,0 -9,1 -13,3l-19 9c-3,2 -7,3 -10,3 -1,0 -1,0 -1,0l0 4c0,0 0,0 1,0 4,0 8,-1 12,-3l19 -10c4,-1 7,-2 11,-2 3,0 6,1 10,2l18 10 0 -5z"/>
  <path class="fil0" d="M4010 6758l-16 -8c-4,-2 -8,-3 -12,-3 -5,0 -9,1 -13,3l-19 10c-3,1 -7,2 -10,2 -1,0 -1,0 -1,0l0 4c0,0 0,0 1,0 4,0 8,-1 12,-3l19 -9c4,-2 7,-3 11,-3 3,0 6,1 10,3l18 9 0 -5z"/>
  <path class="fil0" d="M3982 6789c-5,0 -9,1 -13,3l-19 9c-3,2 -7,3 -10,3 -1,0 -1,0 -1,0l0 4c0,0 0,0 1,0 4,0 8,-1 12,-3l19 -10c4,-1 7,-2 11,-2 3,0 6,1 10,2l9 5 2 -4 -9 -4c-4,-2 -8,-3 -12,-3z"/>
  <path class="fil0" d="M4010 6842l-16 -9c-4,-2 -8,-2 -12,-2 -5,0 -9,0 -13,2l-12 7 2 3 12 -6c4,-1 7,-2 11,-2 3,0 6,1 10,2l18 9 0 -4z"/>
  <path class="fil0" d="M4010 6883l-16 -8c-4,-2 -8,-3 -12,-3 -5,0 -9,1 -13,3l-19 10c-3,1 -7,2 -10,2 -1,0 -1,0 -1,0l0 1 14 0 18 -9c4,-2 7,-3 11,-3 3,0 6,1 10,3l18 9 0 0 0 -5z"/>
  <path class="fil0" d="M4010 6842l-16 -9c-4,-2 -8,-2 -12,-2 -5,0 -9,0 -13,2l-19 10c-3,2 -7,3 -10,3 -1,0 -1,-1 -1,-1l0 5c0,0 0,0 1,0 4,0 8,-1 12,-3l19 -10c4,-1 7,-2 11,-2 3,0 6,1 10,2l18 9 0 -4z"/>
  <path class="fil0" d="M3982 6872c-5,0 -9,1 -13,3l-19 10c-3,1 -7,2 -10,2 -1,0 -1,0 -1,0l0 1 14 0 18 -9c4,-2 7,-3 11,-3 3,0 6,1 10,3l9 4 2 -3 -9 -5c-4,-2 -8,-3 -12,-3z"/>
  <path class="fil0" d="M4093 6721l1 1c4,2 8,3 13,3 4,0 8,-1 12,-3l1 -1 -27 0z"/>
  <path class="fil0" d="M4010 6721l1 1c4,2 8,3 12,3 4,0 8,-1 12,-3l2 -1 -27 0 0 0zm83 0l1 1c4,2 8,3 13,3 4,0 8,-1 12,-3l1 -1 -27 0z"/>
  <path class="fil0" d="M4164 6752l-4 -2c-4,-2 -8,-3 -12,-3 -4,0 -8,1 -12,3l-13 6 2 4 13 -6c3,-2 7,-3 10,-3 4,0 7,1 10,3l6 2 0 -4z"/>
  <path class="fil0" d="M4164 6793l-4 -1c-4,-2 -8,-3 -12,-3 -4,0 -8,1 -12,3l-19 9c-4,2 -7,3 -10,3 -4,0 -7,-1 -11,-3l-19 -9c-4,-2 -8,-3 -12,-3 -4,0 -8,1 -12,3l-13 6 2 4 13 -7c3,-1 6,-2 10,-2 3,0 7,1 10,2l19 10c4,2 8,3 13,3 4,0 8,-1 12,-3l19 -10c3,-1 7,-2 10,-2 4,0 7,1 10,2l6 3 0 -5z"/>
  <path class="fil0" d="M4164 6752l-4 -2c-4,-2 -8,-3 -12,-3 -4,0 -8,1 -12,3l-19 10c-4,1 -7,2 -10,2 -4,0 -7,-1 -11,-2l-19 -10c-4,-2 -8,-3 -12,-3 -4,0 -8,1 -12,3l-20 10c-3,1 -6,2 -10,2 -3,0 -7,-1 -10,-2l-3 -2 0 5 1 0c4,2 8,3 12,3 4,0 8,-1 12,-3l20 -9c3,-2 6,-3 10,-3 3,0 7,1 10,3l19 9c4,2 8,3 13,3 4,0 8,-1 12,-3l19 -9c3,-2 7,-3 10,-3 4,0 7,1 10,3l6 2 0 -4z"/>
  <path class="fil0" d="M4148 6789c-4,0 -8,1 -12,3l-19 9c-4,2 -7,3 -10,3 -4,0 -7,-1 -11,-3l-19 -9c-4,-2 -8,-3 -12,-3 -4,0 -8,1 -12,3l-20 9c-3,2 -6,3 -10,3 -3,0 -7,-1 -10,-3l-3 -1 0 5 1 0c4,2 8,3 12,3 4,0 8,-1 12,-3l20 -10c3,-1 6,-2 10,-2 3,0 7,1 10,2l19 10c4,2 8,3 13,3 4,0 8,-1 12,-3l19 -10c3,-1 7,-2 10,-2 4,0 7,1 10,2l6 3 0 -5 -4 -1c-4,-2 -8,-3 -12,-3z"/>
  <path class="fil0" d="M4065 6747c-4,0 -8,1 -12,3l-20 10c-3,1 -6,2 -10,2 -3,0 -7,-1 -10,-2l-3 -2 0 5 1 0c4,2 8,3 12,3 4,0 8,-1 12,-3l20 -9c3,-2 6,-3 10,-3 3,0 7,1 10,3l9 4 2 -3 -9 -5c-4,-2 -8,-3 -12,-3z"/>
  <path class="fil0" d="M4164 6835l-4 -2c-4,-2 -8,-2 -12,-2 -4,0 -8,0 -12,2l-13 7 2 3 13 -6c3,-1 7,-2 10,-2 4,0 7,1 10,2l6 3 0 -5z"/>
  <path class="fil0" d="M4164 6877l-4 -2c-4,-2 -8,-3 -12,-3 -4,0 -8,1 -12,3l-19 10c-4,1 -7,2 -10,2 -4,0 -7,-1 -11,-2l-19 -10c-4,-2 -8,-3 -12,-3 -4,0 -8,1 -12,3l-13 6 2 4 13 -6c3,-2 6,-3 10,-3 3,0 7,1 10,3l18 9 27 0 18 -9c3,-2 7,-3 10,-3 4,0 7,1 10,3l6 2 0 -4z"/>
  <path class="fil0" d="M4164 6835l-4 -2c-4,-2 -8,-2 -12,-2 -4,0 -8,0 -12,2l-19 10c-4,2 -7,3 -10,3 -4,0 -7,-1 -11,-3l-19 -10c-4,-2 -8,-2 -12,-2 -4,0 -8,0 -12,2l-20 10c-3,2 -6,3 -10,3 -3,0 -7,-1 -10,-3l-3 -1 0 4 1 1c4,2 8,3 12,3 4,0 8,-1 12,-3l20 -10c3,-1 6,-2 10,-2 3,0 7,1 10,2l19 10c4,2 8,3 13,3 4,0 8,-1 12,-3l19 -10c3,-1 7,-2 10,-2 4,0 7,1 10,2l6 3 0 -5z"/>
  <path class="fil0" d="M4148 6872c-4,0 -8,1 -12,3l-19 10c-4,1 -7,2 -10,2 -4,0 -7,-1 -11,-2l-19 -10c-4,-2 -8,-3 -12,-3 -4,0 -8,1 -12,3l-20 10c-3,1 -6,2 -10,2 -3,0 -7,-1 -10,-2l-3 -2 0 5 27 0 18 -9c3,-2 6,-3 10,-3 3,0 7,1 10,3l18 9 27 0 18 -9c3,-2 7,-3 10,-3 4,0 7,1 10,3l6 2 0 -4 -4 -2c-4,-2 -8,-3 -12,-3z"/>
  <path class="fil0" d="M4065 6831c-4,0 -8,0 -12,2l-20 10c-3,2 -6,3 -10,3 -3,0 -7,-1 -10,-3l-3 -1 0 4 1 1c4,2 8,3 12,3 4,0 8,-1 12,-3l20 -10c3,-1 6,-2 10,-2 3,0 7,1 10,2l9 5 2 -4 -9 -5c-4,-2 -8,-2 -12,-2z"/>
  <path class="fil0" d="M3939 6558c0,0 0,0 1,0 4,0 8,-1 12,-3l1 -1 -14 0 0 4zm71 -4l0 1 0 -1 0 0z"/>
  <path class="fil0" d="M3939 6558c0,0 0,0 1,0 4,0 8,-1 12,-3l1 -1 -14 0 0 4z"/>
  <path class="fil0" d="M4010 6592l-16 -9c-4,-2 -8,-2 -12,-2 -5,0 -9,0 -13,2l-12 7 2 3 12 -6c4,-1 7,-2 11,-2 3,0 6,1 10,2l18 9 0 -4z"/>
  <path class="fil0" d="M4010 6633l-16 -8c-4,-2 -8,-3 -12,-3 -5,0 -9,1 -13,3l-19 10c-3,1 -7,2 -10,2 -1,0 -1,0 -1,0l0 4c0,0 0,0 1,0 4,0 8,-1 12,-3l19 -9c4,-2 7,-3 11,-3 3,0 6,1 10,3l18 9 0 -5z"/>
  <path class="fil0" d="M4010 6592l-16 -9c-4,-2 -8,-2 -12,-2 -5,0 -9,0 -13,2l-19 10c-3,2 -7,3 -10,3 -1,0 -1,-1 -1,-1l0 5c0,0 0,0 1,0 4,0 8,-1 12,-3l19 -10c4,-1 7,-2 11,-2 3,0 6,1 10,2l18 9 0 -4z"/>
  <path class="fil0" d="M3982 6622c-5,0 -9,1 -13,3l-19 10c-3,1 -7,2 -10,2 -1,0 -1,0 -1,0l0 4c0,0 0,0 1,0 4,0 8,-1 12,-3l19 -9c4,-2 7,-3 11,-3 3,0 6,1 10,3l9 4 2 -3 -9 -5c-4,-2 -8,-3 -12,-3z"/>
  <path class="fil0" d="M4010 6675l-16 -8c-4,-2 -8,-3 -12,-3 -5,0 -9,1 -13,3l-12 6 2 4 12 -7c4,-1 7,-2 11,-2 3,0 6,1 10,2l18 10 0 -5z"/>
  <path class="fil0" d="M4010 6717l-16 -9c-4,-2 -8,-2 -12,-2 -5,0 -9,0 -13,2l-19 10c-3,2 -7,3 -10,3 -1,0 -1,-1 -1,-1l0 1 14 0 18 -9c4,-1 7,-2 11,-2 3,0 6,1 10,2l18 9 0 0 0 -4z"/>
  <path class="fil0" d="M4010 6675l-16 -8c-4,-2 -8,-3 -12,-3 -5,0 -9,1 -13,3l-19 9c-3,2 -7,3 -10,3 -1,0 -1,0 -1,0l0 4c0,0 0,0 1,0 4,0 8,-1 12,-3l19 -10c4,-1 7,-2 11,-2 3,0 6,1 10,2l18 10 0 -5z"/>
  <path class="fil0" d="M3982 6706c-5,0 -9,0 -13,2l-19 10c-3,2 -7,3 -10,3 -1,0 -1,-1 -1,-1l0 1 14 0 18 -9c4,-1 7,-2 11,-2 3,0 6,1 10,2l9 5 2 -4 -9 -5c-4,-2 -8,-2 -12,-2z"/>
  <path class="fil0" d="M4093 6554l1 1c4,2 8,3 13,3 4,0 8,-1 12,-3l1 -1 -27 0z"/>
  <path class="fil0" d="M4010 6555l1 0c4,2 8,3 12,3 4,0 8,-1 12,-3l2 -1 -27 0 0 1zm83 -1l1 1c4,2 8,3 13,3 4,0 8,-1 12,-3l1 -1 -27 0z"/>
  <path class="fil0" d="M4164 6585l-4 -2c-4,-2 -8,-2 -12,-2 -4,0 -8,0 -12,2l-13 7 2 3 13 -6c3,-1 7,-2 10,-2 4,0 7,1 10,2l6 3 0 -5z"/>
  <path class="fil0" d="M4164 6627l-4 -2c-4,-2 -8,-3 -12,-3 -4,0 -8,1 -12,3l-19 10c-4,1 -7,2 -10,2 -4,0 -7,-1 -11,-2l-19 -10c-4,-2 -8,-3 -12,-3 -4,0 -8,1 -12,3l-13 6 2 4 13 -6c3,-2 6,-3 10,-3 3,0 7,1 10,3l19 9c4,2 8,3 13,3 4,0 8,-1 12,-3l19 -9c3,-2 7,-3 10,-3 4,0 7,1 10,3l6 2 0 -4z"/>
  <path class="fil0" d="M4164 6585l-4 -2c-4,-2 -8,-2 -12,-2 -4,0 -8,0 -12,2l-19 10c-4,2 -7,3 -10,3 -4,0 -7,-1 -11,-3l-19 -10c-4,-2 -8,-2 -12,-2 -4,0 -8,0 -12,2l-20 10c-3,2 -6,3 -10,3 -3,0 -7,-1 -10,-3l-3 -1 0 4 1 1c4,2 8,3 12,3 4,0 8,-1 12,-3l20 -10c3,-1 6,-2 10,-2 3,0 7,1 10,2l19 10c4,2 8,3 13,3 4,0 8,-1 12,-3l19 -10c3,-1 7,-2 10,-2 4,0 7,1 10,2l6 3 0 -5z"/>
  <path class="fil0" d="M4148 6622c-4,0 -8,1 -12,3l-19 10c-4,1 -7,2 -10,2 -4,0 -7,-1 -11,-2l-19 -10c-4,-2 -8,-3 -12,-3 -4,0 -8,1 -12,3l-20 10c-3,1 -6,2 -10,2 -3,0 -7,-1 -10,-2l-3 -2 0 5 1 0c4,2 8,3 12,3 4,0 8,-1 12,-3l20 -9c3,-2 6,-3 10,-3 3,0 7,1 10,3l19 9c4,2 8,3 13,3 4,0 8,-1 12,-3l19 -9c3,-2 7,-3 10,-3 4,0 7,1 10,3l6 2 0 -4 -4 -2c-4,-2 -8,-3 -12,-3z"/>
  <path class="fil0" d="M4065 6581c-4,0 -8,0 -12,2l-20 10c-3,2 -6,3 -10,3 -3,0 -7,-1 -10,-3l-3 -1 0 4 1 1c4,2 8,3 12,3 4,0 8,-1 12,-3l20 -10c3,-1 6,-2 10,-2 3,0 7,1 10,2l9 5 2 -4 -9 -5c-4,-2 -8,-2 -12,-2z"/>
  <path class="fil0" d="M4164 6668l-4 -1c-4,-2 -8,-3 -12,-3 -4,0 -8,1 -12,3l-13 6 2 4 13 -7c3,-1 7,-2 10,-2 4,0 7,1 10,2l6 3 0 -5z"/>
  <path class="fil0" d="M4164 6710l-4 -2c-4,-2 -8,-2 -12,-2 -4,0 -8,0 -12,2l-19 10c-4,2 -7,3 -10,3 -4,0 -7,-1 -11,-3l-19 -10c-4,-2 -8,-2 -12,-2 -4,0 -8,0 -12,2l-13 7 2 3 13 -6c3,-1 6,-2 10,-2 3,0 7,1 10,2l18 9 27 0 18 -9c3,-1 7,-2 10,-2 4,0 7,1 10,2l6 3 0 -5z"/>
  <path class="fil0" d="M4164 6668l-4 -1c-4,-2 -8,-3 -12,-3 -4,0 -8,1 -12,3l-19 9c-4,2 -7,3 -10,3 -4,0 -7,-1 -11,-3l-19 -9c-4,-2 -8,-3 -12,-3 -4,0 -8,1 -12,3l-20 9c-3,2 -6,3 -10,3 -3,0 -7,-1 -10,-3l-3 -1 0 5 1 0c4,2 8,3 12,3 4,0 8,-1 12,-3l20 -10c3,-1 6,-2 10,-2 3,0 7,1 10,2l19 10c4,2 8,3 13,3 4,0 8,-1 12,-3l19 -10c3,-1 7,-2 10,-2 4,0 7,1 10,2l6 3 0 -5z"/>
  <path class="fil0" d="M4148 6706c-4,0 -8,0 -12,2l-19 10c-4,2 -7,3 -10,3 -4,0 -7,-1 -11,-3l-19 -10c-4,-2 -8,-2 -12,-2 -4,0 -8,0 -12,2l-20 10c-3,2 -6,3 -10,3 -3,0 -7,-1 -10,-3l-3 -1 0 4 27 0 18 -9c3,-1 6,-2 10,-2 3,0 7,1 10,2l18 9 27 0 18 -9c3,-1 7,-2 10,-2 4,0 7,1 10,2l6 3 0 -5 -4 -2c-4,-2 -8,-2 -12,-2z"/>
  <path class="fil0" d="M4065 6664c-4,0 -8,1 -12,3l-20 9c-3,2 -6,3 -10,3 -3,0 -7,-1 -10,-3l-3 -1 0 5 1 0c4,2 8,3 12,3 4,0 8,-1 12,-3l20 -10c3,-1 6,-2 10,-2 3,0 7,1 10,2l9 5 2 -4 -9 -4c-4,-2 -8,-3 -12,-3z"/>
  <path class="fil0" d="M4010 6508l-16 -8c-4,-2 -8,-3 -12,-3 -5,0 -9,1 -13,3l-12 6 2 4 12 -6c4,-2 7,-3 11,-3 3,0 6,1 10,3l18 9 0 -5z"/>
  <path class="fil0" d="M4010 6550l-16 -8c-4,-2 -8,-3 -12,-3 -5,0 -9,1 -13,3l-19 9c-3,2 -7,3 -10,3 -1,0 -1,0 -1,0l0 0 14 0 18 -9c4,-1 7,-2 11,-2 3,0 6,1 10,2l18 9 0 0 0 -4z"/>
  <path class="fil0" d="M4010 6508l-16 -8c-4,-2 -8,-3 -12,-3 -5,0 -9,1 -13,3l-19 10c-3,1 -7,2 -10,2 -1,0 -1,0 -1,0l0 4c0,0 0,0 1,0 4,0 8,-1 12,-3l19 -9c4,-2 7,-3 11,-3 3,0 6,1 10,3l18 9 0 -5z"/>
  <path class="fil0" d="M3982 6539c-5,0 -9,1 -13,3l-19 9c-3,2 -7,3 -10,3 -1,0 -1,0 -1,0l0 0 14 0 18 -9c4,-1 7,-2 11,-2 3,0 6,1 10,2l9 5 2 -4 -9 -4c-4,-2 -8,-3 -12,-3z"/>
  <path class="fil0" d="M4164 6502l-4 -2c-4,-2 -8,-3 -12,-3 -4,0 -8,1 -12,3l-13 6 2 4 13 -6c3,-2 7,-3 10,-3 4,0 7,1 10,3l6 2 0 -4z"/>
  <path class="fil0" d="M4164 6543l-4 -1c-4,-2 -8,-3 -12,-3 -4,0 -8,1 -12,3l-19 9c-4,2 -7,3 -10,3 -4,0 -7,-1 -11,-3l-19 -9c-4,-2 -8,-3 -12,-3 -4,0 -8,1 -12,3l-13 6 2 4 13 -7c3,-1 6,-2 10,-2 3,0 7,1 10,2l18 9 27 0 18 -9c3,-1 7,-2 10,-2 4,0 7,1 10,2l6 3 0 -5z"/>
  <path class="fil0" d="M4164 6502l-4 -2c-4,-2 -8,-3 -12,-3 -4,0 -8,1 -12,3l-19 10c-4,1 -7,2 -10,2 -4,0 -7,-1 -11,-2l-19 -10c-4,-2 -8,-3 -12,-3 -4,0 -8,1 -12,3l-20 10c-3,1 -6,2 -10,2 -3,0 -7,-1 -10,-2l-3 -2 0 5 1 0c4,2 8,3 12,3 4,0 8,-1 12,-3l20 -9c3,-2 6,-3 10,-3 3,0 7,1 10,3l19 9c4,2 8,3 13,3 4,0 8,-1 12,-3l19 -9c3,-2 7,-3 10,-3 4,0 7,1 10,3l6 2 0 -4z"/>
  <path class="fil0" d="M4148 6539c-4,0 -8,1 -12,3l-19 9c-4,2 -7,3 -10,3 -4,0 -7,-1 -11,-3l-19 -9c-4,-2 -8,-3 -12,-3 -4,0 -8,1 -12,3l-20 9c-3,2 -6,3 -10,3 -3,0 -7,-1 -10,-3l-3 -1 0 4 27 0 18 -9c3,-1 6,-2 10,-2 3,0 7,1 10,2l18 9 27 0 18 -9c3,-1 7,-2 10,-2 4,0 7,1 10,2l6 3 0 -5 -4 -1c-4,-2 -8,-3 -12,-3z"/>
  <path class="fil0" d="M4065 6497c-4,0 -8,1 -12,3l-20 10c-3,1 -6,2 -10,2 -3,0 -7,-1 -10,-2l-3 -2 0 5 1 0c4,2 8,3 12,3 4,0 8,-1 12,-3l20 -9c3,-2 6,-3 10,-3 3,0 7,1 10,3l9 4 2 -3 -9 -5c-4,-2 -8,-3 -12,-3z"/>
  <path class="fil0" d="M401 4997c-1,0 -2,0 -3,0 -4,0 -8,1 -12,3l-19 10c-4,1 -7,2 -11,2 -3,0 -7,-1 -10,-2l-3 -2 0 5 1 0c4,2 8,3 12,3 5,0 9,-1 12,-3l20 -9c1,-1 3,-2 5,-2l8 -5z"/>
  <path class="fil0" d="M398 4997c-4,0 -8,1 -12,3l-19 10c-4,1 -7,2 -11,2 -3,0 -7,-1 -10,-2l-3 -2 0 5 1 0c4,2 8,3 12,3 5,0 9,-1 12,-3l20 -9c1,-1 3,-2 5,-2l8 -5c-1,0 -2,0 -3,0z"/>
  <path class="fil0" d="M843 3800l-16 -8c-4,-2 -8,-3 -12,-3 -4,0 -9,1 -12,3l-20 9c-2,2 -5,2 -7,3l-5 4c1,0 1,0 2,0 4,0 8,-1 12,-3l20 -10c3,-1 6,-2 10,-2 3,0 7,1 10,2l18 9 0 -4z"/>
  <path class="fil0" d="M815 3789c-4,0 -9,1 -12,3l-20 9c-2,2 -5,2 -7,3l-5 4c1,0 1,0 2,0 4,0 8,-1 12,-3l20 -10c3,-1 6,-2 10,-2 3,0 7,1 10,2l9 5 2 -4 -9 -4c-4,-2 -8,-3 -12,-3z"/>
  <path class="fil0" d="M4010 3800l-16 -8c-4,-2 -8,-3 -12,-3 -5,0 -9,1 -13,3l-19 9c-3,2 -7,3 -10,3 -1,0 -1,0 -1,0l0 4c0,0 0,0 1,0 4,0 8,-1 12,-3l19 -10c4,-1 7,-2 11,-2 3,0 6,1 10,2l18 9 0 -4z"/>
  <path class="fil0" d="M3982 3789c-5,0 -9,1 -13,3l-19 9c-3,2 -7,3 -10,3 -1,0 -1,0 -1,0l0 4c0,0 0,0 1,0 4,0 8,-1 12,-3l19 -10c4,-1 7,-2 11,-2 3,0 6,1 10,2l9 5 2 -4 -9 -4c-4,-2 -8,-3 -12,-3z"/>
  <path class="fil0" d="M4010 3841l-16 -8c-4,-2 -8,-3 -12,-3 -5,0 -9,1 -13,3l-12 7 2 3 12 -6c4,-2 7,-2 11,-2 3,0 6,0 10,2l18 9 0 -5z"/>
  <path class="fil0" d="M4164 3793l-4 -1c-4,-2 -8,-3 -12,-3 -4,0 -8,1 -12,3l-19 9c-4,2 -7,3 -10,3 -4,0 -7,-1 -11,-3l-19 -9c-4,-2 -8,-3 -12,-3 -4,0 -8,1 -12,3l-13 6 2 4 13 -7c3,-1 6,-2 10,-2 3,0 7,1 10,2l19 10c4,2 8,3 13,3 4,0 8,-1 12,-3l19 -10c3,-1 7,-2 10,-2 4,0 7,1 10,2l6 3 0 -5z"/>
  <path class="fil0" d="M4148 3789c-4,0 -8,1 -12,3l-19 9c-4,2 -7,3 -10,3 -4,0 -7,-1 -11,-3l-19 -9c-4,-2 -8,-3 -12,-3 -4,0 -8,1 -12,3l-20 9c-3,2 -6,3 -10,3 -3,0 -7,-1 -10,-3l-3 -1 0 4 1 1c4,2 8,3 12,3 4,0 8,-1 12,-3l20 -10c3,-1 6,-2 10,-2 3,0 7,1 10,2l19 10c4,2 8,3 13,3 4,0 8,-1 12,-3l19 -10c3,-1 7,-2 10,-2 4,0 7,1 10,2l6 3 0 -5 -4 -1c-4,-2 -8,-3 -12,-3z"/>
  <path class="fil0" d="M4164 3835l-4 -2c-4,-2 -8,-3 -12,-3 -4,0 -8,1 -12,3l-13 7 2 3 13 -6c3,-2 7,-2 10,-2 4,0 7,0 10,2l6 3 0 -5z"/>
  <path class="fil0" d="M4164 3835l-4 -2c-4,-2 -8,-3 -12,-3 -4,0 -8,1 -12,3l-19 10c-4,2 -7,2 -10,2 -4,0 -7,0 -11,-2l-19 -10c-4,-2 -8,-3 -12,-3 -4,0 -8,1 -12,3l-20 10c-3,2 -6,2 -10,2 -3,0 -7,0 -10,-2l-3 -2 0 5 1 1c4,2 8,3 12,3 4,0 8,-1 12,-3l20 -10c3,-2 6,-2 10,-2 3,0 7,0 10,2l19 10c4,2 8,3 13,3 4,0 8,-1 12,-3l19 -10c3,-2 7,-2 10,-2 4,0 7,0 10,2l6 3 0 -5z"/>
  <path class="fil0" d="M4065 3830c-4,0 -8,1 -12,3l-20 10c-3,2 -6,2 -10,2 -3,0 -7,0 -10,-2l-3 -2 0 5 1 1c4,2 8,3 12,3 4,0 8,-1 12,-3l20 -10c3,-2 6,-2 10,-2 3,0 7,0 10,2l9 5 2 -4 -9 -5c-4,-2 -8,-3 -12,-3z"/>
  <polygon class="fil0" points="1343,3341 1338,3339 1333,3341 1343,3346 "/>
  <polygon class="fil0" points="1343,3341 1338,3339 1333,3341 1343,3346 "/>
  <path class="fil0" d="M1510 3341l-17 -8c-3,-2 -7,-3 -12,-3 -4,0 -8,1 -12,3l-12 7 2 3 12 -6c3,-2 7,-2 10,-2 4,0 7,0 11,2l18 9 0 -5z"/>
  <path class="fil0" d="M1510 3341l-17 -8c-3,-2 -7,-3 -12,-3 -4,0 -8,1 -12,3l-19 10c-3,2 -7,2 -10,2 -4,0 -7,0 -10,-2l-20 -10c-4,-2 -8,-3 -12,-3 -4,0 -8,1 -12,3l-19 10c-4,2 -7,2 -11,2 -3,0 -7,0 -10,-2l-3 -2 0 5 1 1c4,2 8,3 12,3 5,0 9,-1 12,-3l20 -10c3,-2 7,-2 10,-2 4,0 7,0 10,2l20 10c3,2 8,3 12,3 4,0 8,-1 12,-3l19 -10c3,-2 7,-2 10,-2 4,0 7,0 11,2l18 9 0 -5z"/>
  <path class="fil0" d="M1398 3330c-4,0 -8,1 -12,3l-19 10c-4,2 -7,2 -11,2 -3,0 -7,0 -10,-2l-3 -2 0 5 1 1c4,2 8,3 12,3 5,0 9,-1 12,-3l20 -10c3,-2 7,-2 10,-2 4,0 7,0 10,2l10 5 1 -4 -9 -5c-4,-2 -8,-3 -12,-3z"/>
  <path class="fil0" d="M1647 3330c-4,1 -7,2 -11,3l-13 7 2 3 22 -13z"/>
  <path class="fil0" d="M1647 3330c-4,1 -7,2 -11,3l-19 10c-4,2 -7,2 -11,2 -3,0 -7,0 -10,-2l-19 -10c-4,-2 -8,-3 -12,-3 -4,0 -8,1 -12,3l-20 10c-3,2 -6,2 -10,2 -3,0 -7,0 -10,-2l-3 -2 0 5 1 1c4,2 8,3 12,3 4,0 8,-1 12,-3l20 -10c3,-2 6,-2 10,-2 3,0 7,0 10,2l19 10c4,2 8,3 12,3 5,0 9,-1 12,-3l5 -2 24 -15z"/>
  <path class="fil0" d="M1565 3330c-4,0 -8,1 -12,3l-20 10c-3,2 -6,2 -10,2 -3,0 -7,0 -10,-2l-3 -2 0 5 1 1c4,2 8,3 12,3 4,0 8,-1 12,-3l20 -10c3,-2 6,-2 10,-2 3,0 7,0 10,2l9 5 2 -4 -9 -5c-4,-2 -8,-3 -12,-3z"/>
  <path class="fil0" d="M1346 1722c3,2 7,3 10,3 4,0 8,-1 11,-3l-21 0zm83 0c4,2 7,3 11,3 3,0 7,-1 10,-3l-21 0z"/>
  <path class="fil1" d="M1397 1945l-6 0 6 0zm-56 0l-593 0c-45,0 -81,-36 -81,-80 0,44 36,80 81,80l593 0zm142 -55l35 -35c1,-1 1,-1 2,-2 -1,1 -1,1 -2,2l-35 35zm-816 -25c0,-45 36,-81 81,-81 -45,0 -81,36 -81,81zm860 -55c0,-1 0,-1 0,-1 0,0 0,0 0,1z"/>
  <path class="fil2" d="M1836 4254l-6 -3c-2,1 -4,2 -5,3l0 0 6 3 3 1 0 0c2,0 4,-1 5,-2l-3 -1 0 -1z"/>
  <polygon class="fil2" points="2743,3333 2744,3338 2754,3343 2753,3338 "/>
  <path class="fil2" d="M2528 3849c10,-2 25,-14 35,-14 2,-2 4,-3 5,-4 -14,-2 -22,7 -40,18z"/>
  <path class="fil2" d="M2342 3346c3,1 5,2 9,3l0 -4c-3,-1 -6,-3 -9,-4l0 5z"/>
  <path class="fil2" d="M2589 3802c2,2 6,4 8,4 2,-1 3,-2 4,-3 -3,-1 -5,-2 -9,-4 -1,1 -2,2 -3,3z"/>
  <path class="fil2" d="M2641 3748c-2,2 -4,5 -6,7 5,-2 8,-4 14,-4 2,-2 3,-4 3,-4 -3,0 -7,0 -11,1z"/>
  <path class="fil2" d="M1767 3803l-5 2c4,2 8,3 12,3l28 -16c-18,9 -24,14 -35,11z"/>
  <path class="fil3" d="M2342 3383l0 0 0 0c0,0 0,0 0,0z"/>
  <path class="fil3" d="M2343 3383l-1 0 0 0 0 0c1,0 1,0 1,0z"/>
  <path class="fil4" d="M2344 3384l-2 0 0 -1 1 0c1,0 1,1 1,1z"/>
  <path class="fil5" d="M2345 3384l-3 0 0 0 2 0c1,0 1,0 1,0z"/>
  <path class="fil5" d="M2346 3385l-4 0 0 -1 3 0c1,0 1,1 1,1z"/>
  <path class="fil6" d="M2347 3385l-5 0 0 0 4 0c1,0 1,0 1,0z"/>
  <path class="fil7" d="M2350 3386l-8 0 0 0 7 0c0,0 1,0 1,0z"/>
  <path class="fil7" d="M2351 3387l-9 0 0 -1 8 0c0,0 0,0 1,0l0 1z"/>
  <polygon class="fil7" points="2351,3387 2342,3387 2342,3387 2351,3387 2351,3387 "/>
  <path class="fil8" d="M3934 3897l-88 -52 0 0 88 52 0 0zm-175 -102l0 0 -33 -19 0 0 33 19zm-83 -48l-108 -62 0 0 108 62 0 0zm-117 -67l-11 -7 0 0 11 7 0 0zm-17 -10l-4 -2 0 0 4 2c0,0 0,0 0,0zm-12 -7l-14 -8 0 0 14 8 0 0zm-26 -15l-67 -39 0 0 67 39c0,0 0,0 0,0zm-78 -45l-17 -10 0 0 17 10 0 0zm-22 -13l-7 -4 0 0 7 4 0 0zm-12 -6l-14 -8 0 0 14 8 0 0zm-19 -12l-108 -62 0 0 108 62 0 0zm-120 -69l-7 -4 0 0 7 4 0 0zm-12 -7l-10 -5 0 0 10 5 0 0zm-15 -8l-7 -5 0 0 7 5 0 0zm-13 -8l-50 -29 50 29 0 0zm-59 -34l-14 -8 0 0 14 8 0 0zm-21 -12l-2 -1 2 1z"/>
  <path class="fil9" d="M3120 3427c-2,-2 -5,-3 -7,-5 2,2 5,3 7,5zm-15 -8c-3,-2 -5,-3 -8,-4 -12,-6 -25,-11 -39,-15 -11,-3 -21,-6 -32,-8 22,5 43,11 64,20 5,2 10,4 15,7l0 0z"/>
  <path class="fil9" d="M3105 3461c-25,-14 -52,-24 -79,-30l0 0c18,4 36,9 53,17 9,4 18,8 26,13z"/>
  <path class="fil10" d="M3676 3791l-128 -74 0 0 128 74 0 0zm-128 -74l0 0 -3 -2 -55 -32 0 0 58 34zm-69 -40l-24 -14 0 0 24 14 0 0zm-31 -18l-4 -2 0 0 4 2c0,0 0,0 0,0zm-13 -7l-10 -6 0 0 10 6 0 0zm-18 -11l0 0 -69 -40 0 0 69 40zm-73 -42l-5 -3 0 0 5 3 0 0zm-12 -7l-13 -7 0 0 13 7 0 0zm-17 -10l-8 -5 0 0 8 5 0 0zm-14 -8l-106 -61 106 61 0 0zm-113 -65l-15 -9 0 0 15 9zm-20 -12l-2 -1 0 0 2 1zm-9 -5l-18 -10 0 0 18 10 0 0zm-23 -13l-1 0 0 0 1 0 0 0zm-5 -3l-26 -15 26 15z"/>
  <polygon class="fil11" points="3934,3940 3866,3901 3771,3845 3771,3845 "/>
  <path class="fil10" d="M2754 3425l-312 0 0 0 312 0 0 0zm-362 0l-41 0 0 0 41 0 0 0zm-50 0l-322 0 0 0 322 0 0 0zm-331 0l-249 0 249 0z"/>
  <path class="fil12" d="M3047 539c0,25 -21,46 -47,46 -26,0 -46,-21 -46,-46 0,-26 20,-47 46,-47 26,0 47,21 47,47z"/>
  <path class="fil13" d="M3015 552l-7 0 0 -39c-8,7 -13,9 -21,11l0 9 11 -3 0 22 -11 0 0 8 28 0 0 -8zm-55 -13c0,-24 16,-41 40,-41 24,0 40,17 40,41 0,25 -16,40 -40,40 -24,0 -40,-15 -40,-40z"/>
  <path class="fil13" d="M3015 552l-7 0 0 -39c-8,7 -13,9 -21,11l0 9 11 -3 0 22 -11 0 0 8 28 0 0 -8zm-55 -13c0,-24 16,-41 40,-41 24,0 40,17 40,41 0,25 -16,40 -40,40 -24,0 -40,-15 -40,-40z"/>
  <path class="fil14" d="M2231 539c0,27 -22,49 -49,49 -26,0 -48,-22 -48,-49 0,-27 22,-49 48,-49 27,0 49,22 49,49z"/>
  <path class="fil13" d="M2198 552l-18 0c9,-6 17,-16 17,-25 0,-8 -5,-14 -14,-14 -6,0 -12,2 -15,5l1 13c4,-7 8,-8 12,-8 4,0 5,2 5,6 0,6 -7,13 -20,24l0 9 32 0 0 -10zm-16 -55c25,0 42,18 42,43 0,26 -17,42 -42,42 -25,0 -41,-16 -41,-42 0,-25 16,-43 41,-43z"/>
  <path class="fil15" d="M1415 1234c0,27 -22,49 -48,49 -27,0 -49,-22 -49,-49 0,-27 22,-49 49,-49 26,0 48,22 48,49z"/>
  <path class="fil13" d="M1383 1240c0,-11 -7,-15 -14,-15 -2,0 -4,0 -5,0l0 -7 17 0 0 -9 -27 0 0 27c4,-2 7,-2 11,-2 6,0 8,3 8,7 0,5 -3,7 -9,7 -7,0 -12,-4 -12,-4l0 10c3,2 6,3 13,3 13,0 18,-9 18,-17zm-58 -6c0,-25 17,-43 41,-43 26,0 42,18 42,43 0,26 -16,42 -42,42 -24,0 -41,-16 -41,-42z"/>
  <path class="fil16" d="M597 1476c0,27 -21,49 -48,49 -27,0 -48,-22 -48,-49 0,-27 21,-49 48,-49 27,0 48,22 48,49z"/>
  <path class="fil13" d="M553 1470l13 -19 -31 0 0 12c3,-3 7,-3 15,-3l-11 17c1,0 3,-1 5,-1 8,0 10,3 10,7 0,5 -3,7 -8,7 -6,0 -11,-3 -13,-5l0 11c1,1 6,3 13,3 13,0 18,-7 18,-16 0,-8 -4,-13 -11,-13zm-46 6c0,-25 17,-43 42,-43 25,0 42,18 42,43 0,26 -17,42 -42,42 -25,0 -42,-16 -42,-42z"/>
  <path class="fil17" d="M4683 4865c0,27 -22,49 -48,49 -27,0 -49,-22 -49,-49 0,-27 22,-49 49,-49 26,0 48,22 48,49z"/>
  <path class="fil13" d="M4637 4854l0 0 0 16 -11 0 11 -16zm16 16l-6 0 0 -29 -12 0 -19 30 0 8 21 0 0 9 10 0 0 -9 6 0 0 -9zm-60 -5c0,-24 17,-42 41,-42 26,0 42,18 42,42 0,26 -16,43 -42,43 -24,0 -41,-17 -41,-43z"/>
  <path class="fil16" d="M3750 6340c0,27 -22,49 -48,49 -27,0 -49,-22 -49,-49 0,-27 22,-49 49,-49 26,0 48,22 48,49z"/>
  <path class="fil13" d="M3706 6334l13 -18 -32 0 0 12c4,-3 8,-4 15,-4l-11 17c2,0 4,0 6,0 7,0 9,3 9,7 0,4 -3,7 -7,7 -6,0 -11,-4 -13,-6l0 12c1,1 6,3 13,3 13,0 18,-8 18,-16 0,-8 -4,-13 -11,-14zm-46 7c0,-25 17,-43 41,-43 26,0 42,18 42,43 0,26 -16,42 -42,42 -24,0 -41,-16 -41,-42z"/>
  <path class="fil15" d="M2816 6340c0,27 -21,49 -48,49 -26,0 -48,-22 -48,-49 0,-27 22,-49 48,-49 27,0 48,22 48,49z"/>
  <path class="fil13" d="M2785 6347c0,-11 -8,-15 -14,-15 -3,0 -4,0 -6,0l0 -7 18 0 0 -9 -27 0 0 27c4,-2 6,-2 10,-2 6,0 8,2 8,7 0,4 -3,7 -9,7 -6,0 -11,-5 -11,-5l0 11c3,1 6,2 13,2 13,0 18,-8 18,-16zm-58 -6c0,-25 16,-43 41,-43 25,0 42,18 42,43 0,26 -17,42 -42,42 -25,0 -41,-16 -41,-42z"/>
  <path class="fil12" d="M946 6340c0,26 -21,47 -47,47 -26,0 -46,-21 -46,-47 0,-25 20,-46 46,-46 26,0 47,21 47,46z"/>
  <path class="fil13" d="M914 6353l-7 0 0 -38c-8,6 -13,9 -21,11l0 8 11 -2 0 21 -11 0 0 8 28 0 0 -8zm-55 -12c0,-24 16,-41 40,-41 24,0 40,17 40,41 0,24 -16,40 -40,40 -24,0 -40,-16 -40,-40z"/>
  <path class="fil13" d="M914 6353l-7 0 0 -38c-8,6 -13,9 -21,11l0 8 11 -2 0 21 -11 0 0 8 28 0 0 -8zm-55 -12c0,-24 16,-41 40,-41 24,0 40,17 40,41 0,24 -16,40 -40,40 -24,0 -40,-16 -40,-40z"/>
  <path class="fil14" d="M1881 6340c0,28 -22,49 -48,49 -27,0 -49,-21 -49,-49 0,-27 22,-49 49,-49 26,0 48,22 48,49z"/>
  <path class="fil13" d="M1848 6353l-18 0c9,-6 18,-16 18,-24 0,-9 -5,-14 -15,-14 -5,0 -11,2 -14,4l0 13c5,-6 8,-8 12,-8 4,0 6,2 6,6 0,6 -8,13 -20,25l0 8 31 0 0 -10zm-16 -55c26,0 42,18 42,43 0,26 -16,42 -42,42 -24,0 -41,-16 -41,-42 0,-25 17,-43 41,-43z"/>
  <path class="fil13" d="M3015 3795c7,-25 11,-54 11,-86l0 -331c186,0 306,0 508,0 82,0 142,60 142,142l0 275 -661 0zm-152 108l-590 341 -305 -305c1,0 2,-1 3,-1l159 -93 806 0c-18,22 -42,40 -73,58zm-1005 581l0 -351c0,-77 19,-125 68,-165l302 302 -370 214zm17 -639l98 0 0 0 57 0 -84 49c-5,3 -10,6 -14,9l-57 -58zm-66 -66c-51,-50 -68,-89 -68,-160l0 -240c264,0 477,0 651,0l0 128c0,96 -30,147 -113,195l-162 93 -177 0 0 0 -115 0 -16 -16zm1167 -401l0 331c0,34 -4,62 -13,86l-746 0 87 -50c98,-56 138,-125 138,-238l0 -128c239,-1 403,-1 534,-1zm1684 609c0,-111 -81,-192 -193,-192l-741 0 0 -275c0,-53 -19,-102 -55,-137 -35,-35 -83,-55 -137,-55 -202,0 -322,0 -508,0l0 -2661 -50 0 0 2661c-131,0 -295,0 -534,1l0 -450c0,-85 -22,-137 -82,-196l-85 -84c-50,-51 -67,-89 -67,-161l0 -1771 -50 0 0 1771c0,85 22,137 82,196l85 84c50,50 67,89 67,161l0 450c-174,0 -387,0 -651,0l0 -156c0,-85 -21,-137 -81,-196l-1 -1c-2,-1 -147,-146 -226,-226l0 0 -1 -1 0 0c-31,-31 -41,-54 -41,-99l0 -44 0 -1246 -50 0 0 1246 0 44c0,58 15,94 56,135 79,80 225,225 226,226l1 1c51,50 67,89 67,161l0 156c-116,0 -242,0 -380,0l-5 0c-71,0 -110,-16 -160,-66l-505 -505 -17 18 17 -18c-51,-50 -67,-89 -67,-160l0 -994 -50 0 0 994c0,85 21,136 82,196l0 0 504 504c60,60 112,81 197,81l4 0c138,0 264,0 380,0l0 240 0 10 0 0c2,70 19,117 64,166l-829 0 -1 0c-69,3 -107,-13 -158,-63l-83 -84 -35 36 83 83c56,56 106,79 180,79 5,0 10,0 15,-1l877 0 87 87c-58,50 -83,112 -83,201l0 379 -796 460c-98,57 -138,126 -138,238l0 1008 50 0 0 -1008c0,-95 30,-146 113,-194l771 -446 0 1644 50 0 0 -1673 407 -235 410 410 0 0 1 2 0 0c50,49 66,88 66,159l0 545 50 0 0 -545c0,-85 -21,-136 -81,-195l-401 -401 578 -334c50,-29 85,-62 107,-102l681 0 0 2367 50 0 0 -2367 741 0c84,0 143,59 143,142l0 750 50 0 0 -750z"/>
  <path class="fil18" d="M677 3656l-21 20 83 84c55,54 102,75 173,75 5,0 9,0 14,0l1047 0 0 -29 -1047 0 0 0c-5,0 -10,0 -14,0 -63,0 -103,-18 -152,-67l-83 -83z"/>
  <path class="fil17" d="M4620 4737l0 -750c0,-88 -64,-152 -153,-152l-2527 0 0 -29 2527 0c106,0 182,76 182,181l0 750 -29 0z"/>
  <polygon class="fil19" points="624,2776 634,2765 634,2765 624,2776 "/>
  <path class="fil20" d="M613 2786c-58,-57 -79,-106 -79,-188l0 -455c4,3 10,5 15,5 5,0 10,-2 14,-5l0 455c0,73 18,116 71,167l-10 11 0 0 0 0 -11 10 0 0zm-79 -684l0 -477c4,3 10,5 15,5 5,0 10,-2 14,-5l0 477c-4,-3 -9,-5 -14,-5 -5,0 -11,2 -15,5z"/>
  <path class="fil16" d="M3715 6212l-29 0 0 -2692c0,-88 -64,-152 -152,-152 -497,0 -497,0 -2223,0l-4 0c-82,1 -132,-20 -189,-77l-505 -505 21 -20 504 504c52,52 95,70 168,69l5 0c1726,0 1726,0 2223,0 105,0 181,76 181,181l0 2692z"/>
  <path class="fil15" d="M2782 4877l-29 0c0,-73 -18,-115 -69,-167l0 0 -2 -1 0 0 -901 -902c-57,-56 -78,-104 -79,-182l0 0 0 -6 0 -446c0,-74 -18,-116 -71,-168l0 -1c-2,-1 -147,-146 -227,-227 -39,-38 -52,-72 -52,-127l0 -44 0 -1246 29 0 0 1246 0 44c0,47 10,73 44,106l0 0 1 2 0 0c79,80 224,224 225,225l1 1c58,57 79,107 79,189l0 446c0,74 18,116 70,168l903 902c57,57 78,107 78,188zm0 545l-29 0 0 -545 29 0 0 545z"/>
  <path class="fil12" d="M914 6218l-29 0 0 -1008c0,-109 37,-174 132,-229l1851 -1069c86,-49 118,-104 118,-203l0 -3042 29 0 0 3042c0,109 -37,174 -132,229l-1852 1069c-85,49 -117,104 -117,203l0 1008z"/>
  <path class="fil14" d="M1848 6214l-29 0 0 -2081c0,-110 37,-175 132,-230l333 -192c86,-50 118,-105 118,-204l0 -628c0,-74 -18,-116 -70,-168l-84 -84c-59,-58 -79,-107 -79,-189l0 -1771 29 0 0 1771c0,74 18,116 70,168l84 84c59,57 79,107 79,189l0 628c0,110 -37,174 -132,229l-334 193c-85,49 -117,104 -117,204l0 2081z"/>
  <path class="fil21" d="M666 3612c-27,0 -49,-22 -49,-49 0,-27 22,-49 49,-49 26,0 48,22 48,49 0,27 -22,49 -48,49zm0 -91c-25,0 -42,18 -42,43 0,26 17,42 42,42 25,0 41,-16 41,-42 0,-25 -16,-43 -41,-43zm12 65l-10 0 0 -9 -20 0 0 -8 18 -30 12 0 0 30 6 0 0 8 -6 0 0 9zm-10 -34l-11 17 11 0 0 -17 0 0z"/>
  <path class="fil22" d="M666 3606c-25,0 -42,-16 -42,-42 0,-25 17,-43 42,-43 25,0 41,18 41,43 0,26 -16,42 -41,42zm0 -67l-18 30 0 8 20 0 0 9 10 0 0 -9 6 0 0 -8 -6 0 0 -30 -12 0zm2 30l-11 0 11 -17 0 0 0 17z"/>
  <path class="fil16" d="M3099 3321c-9,-9 -21,-14 -33,-14 -13,0 -25,5 -33,14 -19,18 -19,47 0,65 8,9 20,14 33,14 12,0 24,-5 33,-14 8,-8 13,-20 13,-32 0,-13 -5,-25 -13,-33z"/>
  <path class="fil12" d="M3034 3256c-9,-9 -21,-14 -33,-14 -13,0 -25,5 -33,14 -19,18 -19,47 0,66 8,8 20,13 33,13 12,0 24,-5 33,-13 8,-9 13,-21 13,-33 0,-13 -5,-25 -13,-33z"/>
  <path class="fil13" d="M3083 3336c-4,-5 -11,-8 -17,-8 -5,0 -9,1 -12,3l-31 -30c2,-4 3,-8 3,-12 0,-7 -3,-13 -8,-18 -4,-5 -11,-8 -17,-8 -7,0 -13,3 -18,8 -10,10 -10,26 0,35 5,5 11,8 18,8 4,0 8,-1 12,-3l31 31c-6,9 -4,21 4,29 5,5 11,8 18,8 6,0 13,-3 17,-8 5,-4 8,-11 8,-17 0,-7 -3,-14 -8,-18z"/>
  <path class="fil14" d="M1856 4433c-7,-4 -15,-6 -23,-6 -17,0 -32,9 -40,23 -13,22 -6,51 17,64 7,4 15,6 23,6 17,0 32,-9 40,-23 13,-22 6,-51 -17,-64z"/>
  <path class="fil12" d="M1811 4513c-7,-4 -15,-7 -23,-7 -17,0 -32,9 -41,24 -13,22 -5,51 17,64 7,4 15,6 24,6 16,0 32,-9 40,-24 13,-22 5,-50 -17,-63z"/>
  <path class="fil13" d="M1846 4452c-4,-2 -9,-4 -13,-4 -9,0 -17,5 -22,13 -3,6 -4,13 -2,19 1,4 3,8 6,11l-22 38c-1,-1 -3,-1 -5,-1 -9,0 -18,5 -22,13 -3,5 -4,12 -3,19 2,6 6,12 12,15 4,2 8,3 13,3 9,0 17,-5 21,-12 6,-10 4,-22 -3,-30l22 -38c1,0 3,1 5,1 9,0 17,-5 22,-13 7,-12 3,-27 -9,-34z"/>
  <path class="fil17" d="M2908 3797c-6,-11 -16,-18 -28,-22 -12,-3 -25,-1 -36,5 -22,13 -30,42 -17,64 7,11 17,18 29,22 12,3 24,1 35,-5 22,-13 30,-42 17,-64z"/>
  <path class="fil12" d="M2954 3877c-6,-11 -16,-19 -28,-22 -12,-3 -25,-2 -36,5 -22,12 -30,41 -17,63 7,11 17,19 29,22 12,3 24,2 35,-5 22,-12 30,-41 17,-63z"/>
  <path class="fil13" d="M2935 3887c-3,-5 -8,-10 -15,-11 -4,-1 -8,-1 -12,0l-22 -38c7,-8 9,-20 3,-30 -3,-6 -8,-10 -15,-12 -6,-2 -13,-1 -19,3 -12,7 -16,22 -9,34 3,6 9,10 15,12 4,1 9,1 13,0l21 38c-7,8 -9,20 -3,30 3,5 9,10 15,11 7,2 13,1 19,-2 12,-7 16,-23 9,-35z"/>
  <path class="fil17" d="M3799 3787c-9,-8 -21,-13 -33,-13 -13,0 -24,5 -33,13 -18,19 -18,48 0,66 9,9 20,14 33,14 12,0 24,-5 33,-14 18,-18 18,-47 0,-66z"/>
  <path class="fil16" d="M3734 3723c-9,-9 -21,-14 -33,-14 -13,0 -24,5 -33,14 -18,18 -18,47 0,66 9,8 20,13 33,13 12,0 24,-5 33,-13 18,-19 18,-48 0,-66z"/>
  <path class="fil13" d="M3784 3803c-5,-5 -11,-8 -18,-8 -4,0 -8,1 -12,3l-31 -31c5,-9 4,-21 -4,-29 -5,-5 -11,-8 -18,-8 -7,0 -13,3 -18,8 -10,10 -10,25 0,35 5,5 11,8 18,8 4,0 8,-1 12,-3l31 31c-5,9 -4,21 4,29 5,5 11,8 18,8 7,0 13,-3 18,-8 9,-10 9,-25 0,-35z"/>
  <path class="fil15" d="M1894 3853c-26,0 -47,21 -47,47 0,26 21,47 47,47 26,0 46,-21 46,-47 0,-26 -20,-47 -46,-47z"/>
  <path class="fil14" d="M1986 3853c-26,0 -47,21 -47,47 0,26 21,47 47,47 25,0 46,-21 46,-47 0,-26 -21,-47 -46,-47z"/>
  <path class="fil17" d="M1940 3774c-26,0 -47,21 -47,46 0,26 21,47 47,47 25,0 46,-21 46,-47 0,-25 -21,-46 -46,-46z"/>
  <path class="fil13" d="M1912 3883l22 -38c2,0 4,1 6,1 2,0 4,-1 5,-1l22 38c-2,3 -4,6 -5,10l-44 0c-1,-4 -3,-7 -6,-10zm74 -8c-2,0 -4,0 -6,1l-22 -38c4,-5 7,-11 7,-18 0,-13 -11,-25 -25,-25 -14,0 -25,12 -25,25 0,7 2,13 7,18l-22 38c-2,-1 -4,-1 -6,-1 -14,0 -25,11 -25,25 0,14 11,25 25,25 11,0 21,-7 24,-18l44 0c3,11 12,18 24,18 14,0 25,-11 25,-25 0,-14 -11,-25 -25,-25z"/>
  <path class="fil16" d="M2515 3321c-9,-9 -21,-14 -33,-14 -13,0 -24,5 -33,14 -18,18 -18,47 0,65 9,9 20,14 33,14 12,0 24,-5 33,-14 9,-8 13,-20 13,-32 0,-13 -4,-25 -13,-33z"/>
  <path class="fil14" d="M2450 3256c-9,-9 -21,-14 -33,-14 -13,0 -24,5 -33,14 -18,18 -18,47 0,66 9,8 20,13 33,13 12,0 24,-5 33,-13 18,-19 18,-48 0,-66z"/>
  <path class="fil13" d="M2500 3336c-5,-5 -12,-8 -18,-8 -4,0 -9,1 -12,3l-31 -31c5,-9 4,-21 -4,-29 -5,-5 -11,-8 -18,-8 -7,0 -13,3 -18,8 -10,10 -10,26 0,35 5,5 11,8 18,8 4,0 8,-1 12,-3l31 31c-5,9 -4,21 4,29 5,5 11,8 18,8 6,0 13,-3 18,-8 4,-4 7,-11 7,-17 0,-7 -3,-14 -7,-18z"/>
  <path class="fil15" d="M2327 4287c-25,0 -46,21 -46,47 0,25 21,46 46,46 26,0 47,-21 47,-46 0,-26 -21,-47 -47,-47z"/>
  <path class="fil12" d="M2327 4195c-25,0 -46,21 -46,47 0,26 21,46 46,46 26,0 47,-20 47,-46 0,-26 -21,-47 -47,-47z"/>
  <path class="fil13" d="M2335 4310l0 -44c10,-3 18,-13 18,-24 0,-14 -12,-25 -26,-25 -13,0 -25,11 -25,25 0,11 8,21 18,24l0 44c-10,3 -18,12 -18,24 0,14 12,25 25,25 14,0 26,-11 26,-25 0,-12 -8,-21 -18,-24z"/>
  <path class="fil14" d="M1798 4553c0,6 -5,10 -10,10 -6,0 -10,-4 -10,-10 0,-5 4,-10 10,-10 5,0 10,5 10,10z"/>
  <path class="fil12" d="M1843 4474c0,5 -4,9 -10,9 -5,0 -10,-4 -10,-9 0,-6 5,-10 10,-10 6,0 10,4 10,10z"/>
  <path class="fil13" d="M2201 2144c0,10 -8,18 -18,18 -10,0 -18,-8 -18,-18 0,-10 8,-18 18,-18 10,0 18,8 18,18z"/>
  <path class="fil14" d="M2183 2133c-6,0 -10,5 -10,11 0,6 4,10 10,10 6,0 11,-4 11,-10 0,-6 -5,-11 -11,-11zm0 36c-14,0 -25,-12 -25,-25 0,-14 11,-25 25,-25 14,0 25,11 25,25 0,13 -11,25 -25,25z"/>
  <path class="fil13" d="M2258 2590c7,7 7,19 0,26 -7,7 -18,7 -25,0 -7,-7 -7,-19 0,-26 7,-7 18,-7 25,0z"/>
  <path class="fil14" d="M2245 2592c-3,0 -5,1 -7,3 -5,4 -5,11 0,15 4,5 11,5 15,0 4,-4 4,-11 0,-15 -2,-2 -5,-3 -8,-3zm0 36c-6,0 -13,-3 -18,-7 -9,-10 -9,-26 0,-36 5,-5 12,-7 18,-7 7,0 13,2 18,7 10,10 10,26 0,36 -5,4 -11,7 -18,7z"/>
  <path class="fil13" d="M4652 4737c0,10 -8,18 -17,18 -10,0 -18,-8 -18,-18 0,-9 8,-17 18,-17 9,0 17,8 17,17z"/>
  <path class="fil17" d="M4635 4727c-6,0 -10,5 -10,10 0,6 4,10 10,10 5,0 10,-4 10,-10 0,-5 -5,-10 -10,-10zm0 35c-14,0 -25,-11 -25,-25 0,-13 11,-25 25,-25 13,0 25,12 25,25 0,14 -12,25 -25,25z"/>
  <path class="fil13" d="M4652 4348c0,9 -8,17 -18,17 -9,0 -17,-8 -17,-17 0,-10 8,-18 17,-18 10,0 18,8 18,18z"/>
  <path class="fil17" d="M4634 4338c-5,0 -10,4 -10,10 0,5 5,10 10,10 6,0 10,-5 10,-10 0,-6 -4,-10 -10,-10zm0 35c-13,0 -25,-12 -25,-25 0,-14 12,-25 25,-25 14,0 25,11 25,25 0,13 -11,25 -25,25z"/>
  <path class="fil13" d="M4652 4036c0,9 -8,17 -17,17 -10,0 -18,-8 -18,-17 0,-10 8,-18 18,-18 9,0 17,8 17,18z"/>
  <path class="fil17" d="M4635 4026c-6,0 -10,4 -10,10 0,5 4,10 10,10 5,0 10,-5 10,-10 0,-6 -5,-10 -10,-10zm0 35c-14,0 -25,-11 -25,-25 0,-14 11,-25 25,-25 13,0 25,11 25,25 0,14 -12,25 -25,25z"/>
  <path class="fil13" d="M4364 3838c-9,0 -17,-8 -17,-18 0,-9 8,-17 17,-17 10,0 18,8 18,17 0,10 -8,18 -18,18z"/>
  <path class="fil17" d="M4364 3810c-5,0 -10,5 -10,10 0,6 5,10 10,10 6,0 10,-4 10,-10 0,-5 -4,-10 -10,-10zm0 35c-13,0 -25,-11 -25,-25 0,-13 12,-25 25,-25 14,0 25,12 25,25 0,14 -11,25 -25,25z"/>
  <path class="fil13" d="M3367 3838c-9,0 -17,-8 -17,-18 0,-9 8,-17 17,-17 10,0 18,8 18,17 0,10 -8,18 -18,18z"/>
  <path class="fil17" d="M3367 3810c-5,0 -10,5 -10,10 0,6 5,10 10,10 6,0 10,-4 10,-10 0,-5 -4,-10 -10,-10zm0 35c-13,0 -25,-11 -25,-25 0,-13 12,-25 25,-25 14,0 25,12 25,25 0,14 -11,25 -25,25z"/>
  <path class="fil13" d="M3019 2974c0,10 -9,18 -18,18 -10,0 -18,-8 -18,-18 0,-10 8,-18 18,-18 9,0 18,8 18,18z"/>
  <path class="fil12" d="M3001 2964c-6,0 -11,4 -11,10 0,6 5,11 11,11 5,0 10,-5 10,-11 0,-6 -5,-10 -10,-10zm0 35c-14,0 -26,-11 -26,-25 0,-14 12,-25 26,-25 13,0 25,11 25,25 0,14 -12,25 -25,25z"/>
  <path class="fil13" d="M1384 2419c0,10 -8,18 -18,18 -10,0 -18,-8 -18,-18 0,-10 8,-18 18,-18 10,0 18,8 18,18z"/>
  <path class="fil15" d="M1366 2408c-6,0 -11,5 -11,11 0,6 5,10 11,10l0 8 0 -8c6,0 11,-4 11,-10 0,-6 -5,-11 -11,-11zm0 36l0 0c-14,0 -25,-12 -25,-25 0,-14 11,-25 25,-25 14,0 25,11 25,25 0,14 -11,25 -25,25z"/>
  <path class="fil13" d="M1735 3500c0,10 -8,18 -18,18 -10,0 -18,-8 -18,-18 0,-10 9,-18 18,-18 10,0 18,9 18,18z"/>
  <path class="fil15" d="M1717 3490c-6,0 -10,4 -10,10 0,6 4,11 10,11l0 7 0 -7c6,0 11,-5 11,-11 0,-6 -5,-10 -11,-10zm0 36l0 0c-14,-1 -25,-12 -25,-26 0,-13 12,-25 25,-25 14,0 26,12 25,25 0,14 -11,26 -25,26z"/>
  <path class="fil13" d="M1384 2069c0,10 -8,18 -18,18 -10,0 -18,-8 -18,-18 0,-10 8,-18 18,-18 10,0 18,8 18,18z"/>
  <path class="fil15" d="M1366 2058c-6,0 -10,5 -10,11 0,6 4,11 10,11 6,0 11,-5 11,-11 0,-6 -5,-11 -11,-11zm0 36c-14,0 -25,-11 -25,-25 0,-14 11,-25 25,-25 14,0 25,11 25,25 0,14 -11,25 -25,25z"/>
  <path class="fil13" d="M631 2758c7,7 7,19 0,26 -7,7 -18,7 -25,0 -7,-7 -7,-19 0,-26 7,-7 18,-7 25,0z"/>
  <path class="fil16" d="M619 2760c-3,0 -6,1 -8,3 -4,5 -4,11 0,16 4,4 11,4 15,0 4,-5 4,-11 0,-16 -2,-2 -5,-3 -7,-3zm0 36c-7,0 -13,-3 -18,-7 -10,-10 -10,-26 0,-36 5,-5 11,-7 18,-7 6,0 13,2 17,7 10,10 10,26 0,36 -4,4 -11,7 -17,7z"/>
  <path class="fil13" d="M567 2122c0,10 -8,18 -18,18 -10,0 -18,-8 -18,-18 0,-9 8,-17 18,-17 10,0 18,8 18,17z"/>
  <path class="fil16" d="M549 2112c-6,0 -11,5 -11,10 0,6 5,11 11,11 6,0 11,-5 11,-11 0,-5 -5,-10 -11,-10zm0 36c-14,0 -25,-12 -25,-26 0,-13 11,-25 25,-25 14,0 25,12 25,25 0,14 -11,26 -25,26z"/>
  <path class="fil20" d="M549 2148c-14,0 -25,-12 -25,-26 0,-13 11,-25 25,-25 14,0 25,12 25,25 0,14 -11,26 -25,26zm-11 -26l0 0c0,6 5,11 11,11 6,0 11,-5 11,-11 0,-5 -5,-10 -11,-10 -6,0 -11,5 -11,10z"/>
  <path class="fil13" d="M1027 3161c0,10 -8,18 -18,18 -10,0 -18,-8 -18,-18 0,-10 8,-18 18,-18 10,0 18,8 18,18z"/>
  <path class="fil16" d="M1009 3150c-6,0 -11,5 -11,11 0,6 5,11 11,11 6,0 11,-5 11,-11 0,-6 -5,-11 -11,-11zm0 36c-14,0 -25,-11 -25,-25 0,-14 11,-25 25,-25 14,0 25,11 25,25 0,14 -11,25 -25,25z"/>
  <path class="fil20" d="M1009 3186c-14,0 -25,-11 -25,-25 0,-14 11,-25 25,-25 14,0 25,11 25,25 0,2 0,3 0,5 -2,10 -10,18 -21,20 -1,0 -3,0 -4,0zm-11 -25l0 0c0,6 5,11 11,11 6,0 11,-5 11,-11 0,-6 -5,-10 -11,-10 -6,0 -11,4 -11,10z"/>
  <path class="fil13" d="M567 1605c0,10 -8,18 -18,18 -10,0 -18,-8 -18,-18 0,-10 8,-18 18,-18 10,0 18,8 18,18z"/>
  <path class="fil16" d="M549 1594c-6,0 -11,5 -11,11 0,6 5,11 11,11 6,0 11,-5 11,-11 0,-6 -5,-11 -11,-11zm0 36c-14,0 -25,-11 -25,-25 0,-14 11,-25 25,-25 14,0 25,11 25,25 0,14 -11,25 -25,25z"/>
  <path class="fil20" d="M549 1630c-14,0 -25,-11 -25,-25 0,-14 11,-25 25,-25 14,0 25,11 25,25 0,14 -11,25 -25,25zm-11 -25l0 0c0,6 5,11 11,11 6,0 11,-5 11,-11 0,-6 -5,-11 -11,-11 -6,0 -11,5 -11,11z"/>
  <path class="fil13" d="M2201 1088c0,9 -8,17 -18,17 -10,0 -17,-8 -17,-17 0,-10 7,-18 17,-18 10,0 18,8 18,18z"/>
  <path class="fil14" d="M2183 1077c-6,0 -10,5 -10,11 0,6 4,10 10,10 6,0 11,-4 11,-10 0,-6 -5,-11 -11,-11zm0 35c-13,0 -25,-11 -25,-24 0,-14 12,-25 25,-25 14,0 25,11 25,25 0,13 -11,24 -25,24z"/>
  <path class="fil13" d="M2201 1605c0,10 -8,18 -18,18 -10,0 -17,-8 -17,-18 0,-10 7,-18 17,-18 10,0 18,8 18,18z"/>
  <path class="fil14" d="M2183 1595c-6,0 -10,4 -10,10 0,6 4,11 10,11 6,0 11,-5 11,-11 0,-6 -5,-10 -11,-10zm0 35c-13,0 -25,-11 -25,-25 0,-13 12,-25 25,-25 14,0 25,12 25,25 0,14 -11,25 -25,25z"/>
  <path class="fil13" d="M2201 1436c0,9 -8,17 -18,17 -10,0 -17,-8 -17,-17 0,-10 7,-18 17,-18 10,0 18,8 18,18z"/>
  <path class="fil14" d="M2183 1425c-6,0 -10,5 -10,11 0,5 4,10 10,10 6,0 11,-5 11,-10 0,-6 -5,-11 -11,-11zm0 35c-13,0 -25,-11 -25,-24 0,-14 12,-25 25,-25 14,0 25,11 25,25 0,13 -11,24 -25,24z"/>
  <path class="fil13" d="M2201 1262c0,10 -8,18 -18,18 -10,0 -17,-8 -17,-18 0,-9 7,-17 17,-17 10,0 18,8 18,17z"/>
  <path class="fil14" d="M2183 1252c-6,0 -10,5 -10,10 0,6 4,11 10,11 6,0 11,-5 11,-11 0,-5 -5,-10 -11,-10zm0 35c-13,0 -25,-11 -25,-25 0,-13 12,-24 25,-24 14,0 25,11 25,24 0,14 -11,25 -25,25z"/>
  <path class="fil13" d="M2201 667c0,9 -8,17 -18,17 -10,0 -17,-8 -17,-17 0,-10 7,-18 17,-18 10,0 18,8 18,18z"/>
  <path class="fil14" d="M2183 656c-6,0 -10,5 -10,11 0,6 4,10 10,10 6,0 11,-4 11,-10 0,-6 -5,-11 -11,-11zm0 36c-13,0 -25,-12 -25,-25 0,-14 12,-25 25,-25 14,0 25,11 25,25 0,13 -11,25 -25,25z"/>
  <path class="fil13" d="M2201 841c0,10 -8,18 -17,18 -10,0 -18,-8 -18,-18 0,-9 8,-17 18,-17 9,0 17,8 17,17z"/>
  <path class="fil14" d="M2184 831c-6,0 -11,4 -11,10 0,6 5,11 11,11 5,0 10,-5 10,-11 0,-6 -5,-10 -10,-10zm0 35c-14,0 -25,-11 -25,-25 0,-13 11,-24 25,-24 13,0 24,11 24,24 0,14 -11,25 -24,25z"/>
  <path class="fil13" d="M1384 1606c0,10 -8,18 -18,18 -10,0 -18,-8 -18,-18 0,-10 8,-18 18,-18 10,0 18,8 18,18z"/>
  <path class="fil15" d="M1366 1595c-6,0 -10,5 -10,11 0,6 4,11 10,11 6,0 11,-5 11,-11 0,-6 -5,-11 -11,-11zm0 36c-13,0 -25,-11 -25,-25 0,-14 12,-25 25,-25 14,0 25,11 25,25 0,14 -11,25 -25,25z"/>
  <path class="fil13" d="M1384 1360c0,10 -8,18 -18,18 -10,0 -18,-8 -18,-18 0,-9 8,-17 18,-17 10,0 18,8 18,17z"/>
  <path class="fil15" d="M1366 1350c-6,0 -10,5 -10,10 0,6 4,11 10,11 6,0 11,-5 11,-11 0,-5 -5,-10 -11,-10zm0 35c-13,0 -25,-11 -25,-25 0,-13 12,-24 25,-24 14,0 25,11 25,24 0,14 -11,25 -25,25z"/>
  <path class="fil13" d="M1214 4905c-8,5 -19,2 -24,-7 -5,-8 -2,-19 6,-24 9,-5 20,-2 25,6 5,9 2,20 -7,25z"/>
  <path class="fil12" d="M1205 4879c-2,0 -3,0 -5,1 -2,2 -4,4 -5,7 -1,2 0,5 1,8 3,5 10,7 15,4 2,-2 4,-4 5,-7 0,-3 0,-6 -1,-8 -2,-3 -6,-5 -10,-5zm0 35c-9,0 -17,-4 -21,-12 -4,-6 -5,-13 -3,-19 2,-7 6,-12 12,-15 4,-2 8,-4 12,-4 9,0 18,5 22,13 3,6 4,12 3,19 -2,6 -6,12 -12,15 -4,2 -8,3 -13,3z"/>
  <path class="fil13" d="M1398 3838c-10,0 -18,-8 -18,-17 0,-10 8,-18 18,-18 9,0 17,8 17,18 0,9 -8,17 -17,17z"/>
  <path class="fil18" d="M1398 3811c-6,0 -10,4 -10,10 0,5 4,10 10,10 5,0 10,-5 10,-10 0,-6 -5,-10 -10,-10zm0 35c-14,0 -25,-12 -25,-25 0,-14 11,-25 25,-25 13,0 25,11 25,25 0,13 -12,25 -25,25z"/>
  <path class="fil13" d="M653 3678c-6,-6 -6,-18 0,-24 7,-7 18,-7 25,0 7,6 7,18 0,24 -7,7 -18,7 -25,0z"/>
  <path class="fil18" d="M666 3656c-3,0 -5,1 -7,3 -4,4 -4,10 0,14 3,4 10,4 14,0 4,-4 4,-10 0,-14 -2,-2 -5,-3 -7,-3zm0 35c-7,0 -13,-3 -18,-7 -5,-5 -7,-11 -7,-18 0,-7 2,-13 7,-18 5,-4 11,-7 18,-7 6,0 13,3 17,7 10,10 10,26 0,36 -4,4 -11,7 -17,7z"/>
  <path class="fil23" d="M2768 6241c-14,0 -25,-11 -25,-25 0,-8 4,-15 10,-20l0 -224c-6,-5 -10,-12 -10,-20 0,-8 4,-16 10,-20l0 -226c-6,-4 -10,-11 -10,-20 0,-8 4,-15 10,-20l0 -244 30 0 0 244c6,5 10,12 10,20 0,9 -4,16 -10,20l0 226c6,4 10,12 10,20 0,8 -4,15 -10,20l0 224c6,5 10,12 10,20 0,14 -11,25 -25,25zm0 -36c-6,0 -11,5 -11,11 0,6 5,11 11,11 6,0 11,-5 11,-11 0,-6 -5,-11 -11,-11zm0 -264c-6,0 -11,5 -11,11 0,6 5,10 11,10 6,0 11,-4 11,-10 0,-6 -5,-11 -11,-11zm0 -265c-6,0 -11,5 -11,10 0,6 5,11 11,11 6,0 11,-5 11,-11 0,-5 -5,-10 -11,-10z"/>
  <path class="fil13" d="M3719 4737c0,10 -8,18 -18,18 -10,0 -18,-8 -18,-18 0,-10 8,-18 18,-18 10,0 18,8 18,18z"/>
  <path class="fil16" d="M3701 4727c-6,0 -11,4 -11,10 0,6 5,11 11,11 6,0 11,-5 11,-11 0,-6 -5,-10 -11,-10zm0 35c-14,0 -25,-11 -25,-25 0,-14 11,-25 25,-25 14,0 25,11 25,25 0,14 -11,25 -25,25z"/>
  <path class="fil13" d="M3719 5106c0,10 -8,18 -18,18 -10,0 -18,-8 -18,-18 0,-10 8,-18 18,-18 10,0 18,8 18,18z"/>
  <path class="fil16" d="M3701 5095c-6,0 -11,5 -11,11 0,6 5,11 11,11 6,0 11,-5 11,-11 0,-6 -5,-11 -11,-11zm0 36c-14,0 -25,-11 -25,-25 0,-14 11,-25 25,-25 14,0 25,11 25,25 0,14 -11,25 -25,25z"/>
  <path class="fil13" d="M3719 5475c0,10 -8,18 -18,18 -10,0 -18,-8 -18,-18 0,-10 8,-18 18,-18 10,0 18,8 18,18z"/>
  <path class="fil16" d="M3701 5464c-6,0 -11,5 -11,11 0,6 5,11 11,11 6,0 11,-5 11,-11 0,-6 -5,-11 -11,-11zm0 36c-14,0 -25,-11 -25,-25 0,-14 11,-25 25,-25 14,0 25,11 25,25 0,14 -11,25 -25,25z"/>
  <path class="fil13" d="M3719 5845c0,10 -8,18 -18,18 -10,0 -18,-8 -18,-18 0,-10 8,-18 18,-18 10,0 18,8 18,18z"/>
  <path class="fil16" d="M3701 5834c-6,0 -11,5 -11,11 0,6 5,11 11,11 6,0 11,-5 11,-11 0,-6 -5,-11 -11,-11zm0 36c-14,0 -25,-11 -25,-25 0,-14 11,-25 25,-25 14,0 25,11 25,25 0,14 -11,25 -25,25z"/>
  <path class="fil13" d="M3719 6212c0,10 -8,18 -18,18 -10,0 -18,-8 -18,-18 0,-9 8,-17 18,-17 10,0 18,8 18,17z"/>
  <path class="fil16" d="M3701 6202c-6,0 -11,5 -11,10 0,6 5,11 11,11 6,0 11,-5 11,-11 0,-5 -5,-10 -11,-10zm0 36c-14,0 -25,-12 -25,-26 0,-13 11,-25 25,-25 14,0 25,12 25,25 0,14 -11,26 -25,26z"/>
  <path class="fil13" d="M3018 2346c0,10 -8,18 -17,18 -10,0 -18,-8 -18,-18 0,-10 8,-18 18,-18 9,0 17,8 17,18z"/>
  <path class="fil12" d="M3001 2335c-6,0 -11,5 -11,11 0,6 5,11 11,11 5,0 10,-5 10,-11 0,-6 -5,-11 -10,-11zm0 36c-14,0 -26,-11 -26,-25 0,-14 12,-25 26,-25 13,0 25,11 25,25 0,14 -12,25 -25,25z"/>
  <path class="fil13" d="M3018 2117c0,10 -8,18 -17,18 -10,0 -18,-8 -18,-18 0,-10 8,-18 18,-18 9,0 17,8 17,18z"/>
  <path class="fil12" d="M3001 2107c-6,0 -11,4 -11,10 0,6 5,11 11,11 5,0 10,-5 10,-11 0,-6 -5,-10 -10,-10zm0 35c-14,0 -26,-11 -26,-25 0,-14 12,-25 26,-25 13,0 25,11 25,25 0,14 -12,25 -25,25z"/>
  <path class="fil13" d="M3018 1888c0,10 -8,18 -17,18 -10,0 -18,-8 -18,-18 0,-10 8,-18 18,-18 9,0 17,8 17,18z"/>
  <path class="fil12" d="M3001 1877c-6,0 -11,5 -11,11 0,6 5,11 11,11 5,0 10,-5 10,-11 0,-6 -5,-11 -10,-11zm0 36c-14,0 -26,-11 -26,-25 0,-14 12,-25 26,-25 13,0 25,11 25,25 0,14 -12,25 -25,25z"/>
  <path class="fil13" d="M3018 1659c0,10 -8,18 -17,18 -10,0 -18,-8 -18,-18 0,-10 8,-18 18,-18 9,0 17,8 17,18z"/>
  <path class="fil12" d="M3001 1648c-6,0 -11,5 -11,11 0,6 5,10 11,10 5,0 10,-4 10,-10 0,-6 -5,-11 -10,-11zm0 36c-14,0 -26,-12 -26,-25 0,-14 12,-25 26,-25 13,0 25,11 25,25 0,13 -12,25 -25,25z"/>
  <path class="fil13" d="M3018 1430c0,10 -8,18 -17,18 -10,0 -18,-8 -18,-18 0,-10 8,-18 18,-18 9,0 17,8 17,18z"/>
  <path class="fil12" d="M3001 1419c-6,0 -11,5 -11,11 0,6 5,10 11,10 5,0 10,-4 10,-10 0,-6 -5,-11 -10,-11zm0 36c-14,0 -26,-12 -26,-25 0,-14 12,-26 26,-26 13,0 25,12 25,26 0,13 -12,25 -25,25z"/>
  <path class="fil13" d="M3018 1200c0,10 -8,18 -18,18 -10,0 -18,-8 -18,-18 0,-9 8,-18 18,-18 10,0 18,9 18,18z"/>
  <path class="fil12" d="M3000 1190c-6,0 -11,4 -11,10 0,6 5,11 11,11 6,0 11,-5 11,-11 0,-6 -5,-10 -11,-10zm0 36c-14,0 -25,-12 -25,-26 0,-13 11,-25 25,-25 14,0 25,12 25,25 0,14 -11,26 -25,26z"/>
  <path class="fil13" d="M3018 896c0,10 -8,18 -17,18 -10,0 -18,-8 -18,-18 0,-9 8,-17 18,-17 9,0 17,8 17,17z"/>
  <path class="fil12" d="M3001 886c-6,0 -11,5 -11,10 0,6 5,11 11,11 5,0 10,-5 10,-11 0,-5 -5,-10 -10,-10zm0 36c-14,0 -26,-12 -26,-26 0,-13 12,-25 26,-25 13,0 25,12 25,25 0,14 -12,26 -25,26z"/>
  <path class="fil13" d="M3018 667c0,10 -8,18 -17,18 -10,0 -18,-8 -18,-18 0,-10 8,-18 18,-18 9,0 17,8 17,18z"/>
  <path class="fil12" d="M3001 656c-6,0 -11,5 -11,11 0,6 5,10 11,10 5,0 10,-4 10,-10 0,-6 -5,-11 -10,-11zm0 36c-14,0 -26,-12 -26,-25 0,-14 12,-26 26,-26 13,0 25,12 25,26 0,13 -12,25 -25,25z"/>
  <path class="fil13" d="M3018 2117c0,10 -8,18 -17,18 -10,0 -18,-8 -18,-18 0,-10 8,-18 18,-18 9,0 17,8 17,18z"/>
  <path class="fil12" d="M3001 2107c-6,0 -11,4 -11,10 0,6 5,11 11,11 5,0 10,-5 10,-11 0,-6 -5,-10 -10,-10zm0 35c-14,0 -26,-11 -26,-25 0,-14 12,-25 26,-25 13,0 25,11 25,25 0,14 -12,25 -25,25z"/>
  <path class="fil24" d="M2976 2120c-1,-1 -1,-2 -1,-3 0,-1 0,-1 1,-2l0 5zm50 0l0 -5c0,1 0,1 0,2 0,1 0,2 0,3z"/>
  <path class="fil24" d="M2986 2138c-6,-4 -10,-11 -10,-18l0 -5c0,-8 4,-14 10,-18l0 41zm29 0l0 -41c6,4 10,10 11,18l0 5c-1,7 -5,14 -11,18z"/>
  <path class="fil24" d="M3001 2142c-6,0 -11,-1 -15,-4l0 -41c4,-3 9,-5 15,-5 5,0 10,2 14,5l0 41c-4,3 -9,4 -14,4zm-11 -25l0 0c0,6 5,11 11,11 5,0 10,-5 10,-11 0,-6 -5,-10 -10,-10 -6,0 -11,4 -11,10z"/>
  <path class="fil13" d="M2785 4893c0,10 -8,18 -18,18 -10,0 -18,-8 -18,-18 0,-10 8,-18 18,-18 10,0 18,8 18,18z"/>
  <path class="fil15" d="M2767 4882c-6,0 -10,5 -10,11 0,6 4,11 10,11 6,0 11,-5 11,-11 0,-6 -5,-11 -11,-11zm0 36c-14,0 -25,-11 -25,-25 0,-14 11,-25 25,-25 14,0 25,11 25,25 0,14 -11,25 -25,25z"/>
  <path class="fil13" d="M2785 5158c0,9 -8,17 -18,17 -10,0 -18,-8 -18,-17 0,-10 8,-18 18,-18 10,0 18,8 18,18z"/>
  <path class="fil15" d="M2767 5147c-6,0 -10,5 -10,11 0,5 4,10 10,10 6,0 11,-5 11,-10 0,-6 -5,-11 -11,-11zm0 35c-14,0 -25,-11 -25,-24 0,-14 11,-25 25,-25 14,0 25,11 25,25 0,13 -11,24 -25,24z"/>
  <path class="fil13" d="M2786 5422c0,10 -8,18 -18,18 -10,0 -18,-8 -18,-18 0,-9 8,-17 18,-17 10,0 18,8 18,17z"/>
  <path class="fil15" d="M2768 5412c-6,0 -11,5 -11,10 0,6 5,11 11,11 6,0 11,-5 11,-11 0,-5 -5,-10 -11,-10zm0 35c-14,0 -25,-11 -25,-25 0,-13 11,-24 25,-24 14,0 25,11 25,24 0,14 -11,25 -25,25z"/>
  <path class="fil13" d="M2657 4641c7,7 7,18 0,25 -7,7 -18,7 -25,0 -7,-7 -7,-18 0,-25 7,-7 18,-7 25,0z"/>
  <path class="fil15" d="M2644 4643c-3,0 -5,1 -7,3 -2,2 -3,5 -3,8 0,2 1,5 3,7 4,4 11,4 15,0 4,-4 4,-11 0,-15 -2,-2 -5,-3 -8,-3zm0 35c-6,0 -13,-2 -17,-7 -5,-5 -7,-11 -7,-17 0,-7 2,-13 7,-18 4,-5 11,-7 17,-7 7,0 13,2 18,7 10,10 10,25 0,35 -5,5 -11,7 -18,7z"/>
  <path class="fil13" d="M917 6217c0,10 -8,18 -18,18 -10,0 -18,-8 -18,-18 0,-10 8,-18 18,-18 10,0 18,8 18,18z"/>
  <path class="fil12" d="M899 6206c-6,0 -11,5 -11,11 0,6 5,10 11,10 6,0 11,-4 11,-10 0,-6 -5,-11 -11,-11zm0 36c-14,0 -25,-11 -25,-25 0,-14 11,-25 25,-25 14,0 25,11 25,25 0,14 -11,25 -25,25z"/>
  <path class="fil13" d="M917 5924c0,10 -8,18 -18,18 -10,0 -18,-8 -18,-18 0,-9 8,-17 18,-17 10,0 18,8 18,17z"/>
  <path class="fil12" d="M899 5914c-6,0 -11,5 -11,10 0,6 5,11 11,11 6,0 11,-5 11,-11 0,-5 -5,-10 -11,-10zm0 35c-14,0 -25,-11 -25,-25 0,-13 11,-25 25,-25 14,0 25,12 25,25 0,14 -11,25 -25,25z"/>
  <path class="fil13" d="M917 5708c0,10 -8,18 -18,18 -10,0 -18,-8 -18,-18 0,-9 8,-17 18,-17 10,0 18,8 18,17z"/>
  <path class="fil12" d="M899 5698c-6,0 -11,5 -11,10 0,6 5,11 11,11 6,0 11,-5 11,-11 0,-5 -5,-10 -11,-10zm0 35c-14,0 -25,-11 -25,-25 0,-13 11,-25 25,-25 14,0 25,12 25,25 0,14 -11,25 -25,25z"/>
  <path class="fil13" d="M917 5415c0,10 -8,18 -18,18 -10,0 -18,-8 -18,-18 0,-10 8,-18 18,-18 10,0 18,8 18,18z"/>
  <path class="fil12" d="M899 5404c-6,0 -11,5 -11,11 0,6 5,10 11,10 6,0 11,-4 11,-10 0,-6 -5,-11 -11,-11zm0 36c-14,0 -25,-12 -25,-25 0,-14 11,-25 25,-25 14,0 25,11 25,25 0,13 -11,25 -25,25z"/>
  <path class="fil13" d="M917 5191c0,10 -8,18 -17,18 -10,0 -18,-8 -18,-18 0,-10 8,-18 18,-18 9,0 17,8 17,18z"/>
  <path class="fil12" d="M900 5180c-6,0 -11,5 -11,11 0,6 5,11 11,11 6,0 10,-5 10,-11 0,-6 -4,-11 -10,-11zm0 36c-14,0 -25,-11 -25,-25 0,-14 11,-25 25,-25 13,0 25,11 25,25 0,14 -12,25 -25,25z"/>
  <path class="fil13" d="M1384 2634c0,9 -8,17 -18,17 -10,0 -18,-8 -18,-17 0,-10 8,-18 18,-18 10,0 18,8 18,18z"/>
  <path class="fil15" d="M1366 2623c-6,0 -11,5 -11,11 0,5 5,10 11,10 3,0 6,-1 8,-3 2,-2 3,-5 3,-7 0,-6 -5,-11 -11,-11zm0 36l0 0c-14,0 -25,-12 -25,-25 0,-14 11,-26 25,-26 14,0 25,12 25,26 0,13 -11,25 -25,25z"/>
  <path class="fil13" d="M1851 4893c0,9 -8,18 -18,18 -10,0 -18,-9 -18,-18 0,-10 8,-18 18,-18 10,0 18,8 18,18z"/>
  <path class="fil14" d="M1833 4882c-6,0 -11,5 -11,11 0,5 5,10 11,10 6,0 11,-5 11,-10 0,-6 -5,-11 -11,-11zm0 36c-14,0 -25,-12 -25,-25 0,-14 11,-26 25,-26 14,0 25,12 25,26 0,13 -11,25 -25,25z"/>
  <path class="fil13" d="M1851 5112c0,10 -8,18 -18,18 -10,0 -18,-8 -18,-18 0,-9 8,-18 18,-18 10,0 18,9 18,18z"/>
  <path class="fil14" d="M1833 5102c-6,0 -11,5 -11,10 0,6 5,11 11,11 6,0 11,-5 11,-11 0,-5 -5,-10 -11,-10zm0 36c-14,0 -25,-12 -25,-26 0,-13 11,-25 25,-25 14,0 25,12 25,25 0,14 -11,26 -25,26z"/>
  <path class="fil13" d="M1852 5335c0,10 -8,18 -18,18 -10,0 -18,-8 -18,-18 0,-10 8,-18 18,-18 10,0 18,8 18,18z"/>
  <path class="fil14" d="M1834 5324c-6,0 -11,5 -11,11 0,6 5,10 11,10 6,0 11,-4 11,-10 0,-6 -5,-11 -11,-11zm0 36c-14,0 -25,-11 -25,-25 0,-14 11,-25 25,-25 14,0 25,11 25,25 0,14 -11,25 -25,25z"/>
  <path class="fil13" d="M1852 5555c0,9 -8,18 -18,18 -10,0 -18,-9 -18,-18 0,-10 8,-18 18,-18 10,0 18,8 18,18z"/>
  <path class="fil14" d="M1834 5544c-6,0 -11,5 -11,11 0,6 5,10 11,10 6,0 11,-4 11,-10 0,-6 -5,-11 -11,-11zm0 36c-14,0 -25,-12 -25,-25 0,-14 11,-26 25,-26 14,0 25,12 25,26 0,13 -11,25 -25,25z"/>
  <path class="fil13" d="M1851 5775c0,10 -8,18 -18,18 -10,0 -18,-8 -18,-18 0,-10 8,-18 18,-18 10,0 18,8 18,18z"/>
  <path class="fil14" d="M1833 5764c-6,0 -11,5 -11,11 0,6 5,11 11,11 6,0 11,-5 11,-11 0,-6 -5,-11 -11,-11zm0 36c-14,0 -25,-11 -25,-25 0,-14 11,-25 25,-25 14,0 25,11 25,25 0,14 -11,25 -25,25z"/>
  <path class="fil13" d="M1851 5995c0,10 -8,18 -18,18 -10,0 -18,-8 -18,-18 0,-10 8,-18 18,-18 10,0 18,8 18,18z"/>
  <path class="fil14" d="M1833 5984c-6,0 -11,5 -11,11 0,6 5,11 11,11 6,0 11,-5 11,-11 0,-6 -5,-11 -11,-11zm0 36c-14,0 -25,-11 -25,-25 0,-14 11,-25 25,-25 14,0 25,11 25,25 0,14 -11,25 -25,25z"/>
  <path class="fil13" d="M1852 6217c0,10 -8,18 -18,18 -10,0 -18,-8 -18,-18 0,-10 8,-18 18,-18 10,0 18,8 18,18z"/>
  <path class="fil14" d="M1834 6207c-6,0 -11,4 -11,10 0,6 5,11 11,11 6,0 11,-5 11,-11 0,-6 -5,-10 -11,-10zm0 35c-14,0 -25,-11 -25,-25 0,-13 11,-25 25,-25 14,0 25,12 25,25 0,14 -11,25 -25,25z"/>
  <polygon class="fil12" points="1771,4646 1778,4646 1778,4653 1755,4653 1755,4646 1762,4646 1762,4616 1755,4616 1757,4610 1778,4610 1778,4616 1771,4616 "/>
  <polygon class="fil14" points="1891,4431 1898,4431 1898,4438 1876,4438 1876,4431 1883,4431 1883,4401 1875,4401 1877,4394 1898,4394 1898,4401 1891,4401 "/>
  <polygon class="fil14" points="1919,4431 1926,4431 1926,4438 1904,4438 1904,4431 1911,4431 1911,4401 1903,4401 1905,4394 1926,4394 1926,4401 1919,4401 "/>
  <polygon class="fil16" points="3641,3736 3649,3736 3649,3743 3626,3743 3626,3736 3633,3736 3633,3707 3626,3707 3627,3700 3649,3700 3649,3707 3641,3707 "/>
  <polygon class="fil17" points="3822,3892 3829,3892 3829,3899 3806,3899 3806,3892 3813,3892 3813,3863 3806,3863 3807,3856 3829,3856 3829,3863 3822,3863 "/>
  <polygon class="fil17" points="3850,3892 3857,3892 3857,3899 3835,3899 3835,3892 3842,3892 3842,3863 3834,3863 3836,3856 3857,3856 3857,3863 3850,3863 "/>
  <polygon class="fil17" points="3822,3892 3829,3892 3829,3899 3806,3899 3806,3892 3813,3892 3813,3863 3806,3863 3807,3856 3829,3856 3829,3863 3822,3863 "/>
  <polygon class="fil17" points="3850,3892 3857,3892 3857,3899 3835,3899 3835,3892 3842,3892 3842,3863 3834,3863 3836,3856 3857,3856 3857,3863 3850,3863 "/>
  <polygon class="fil13" points="5397,116 5279,116 5279,-2 5397,-2 "/>
 </g>
</svg>
